<?xml version="1.0" encoding="utf-8"?>
<!-- Generator: Adobe Illustrator 16.0.0, SVG Export Plug-In . SVG Version: 6.00 Build 0)  -->
<!DOCTYPE svg PUBLIC "-//W3C//DTD SVG 1.1//EN" "http://www.w3.org/Graphics/SVG/1.1/DTD/svg11.dtd">
<svg version="1.1" id="Layer_1" xmlns="http://www.w3.org/2000/svg" xmlns:xlink="http://www.w3.org/1999/xlink" x="0px" y="0px"
	 width="150px" height="150px" viewBox="0 0 150 150" enable-background="new 0 0 150 150" xml:space="preserve">
<g display="none">
	<path display="inline" fill="#525252" d="M149.945,75c0,41.394-33.552,74.945-74.944,74.945C33.61,149.945,0.055,116.394,0.055,75
		S33.61,0.054,75.001,0.054C116.394,0.054,149.945,33.606,149.945,75"/>
	<path display="inline" fill="#FFFFFF" d="M93.336,95.851H57.174l-0.295-1.299c-1.494-6.694,3.456-13.699,11.654-17.283
		c-1.82-1.06-3.208-2.441-4.236-4.203c-1.859-3.177-2.285-6.543-1.279-10.004c1.639-5.64,7.137-9.391,13.07-8.873
		c5.733,0.479,10.577,5.144,11.268,10.857c0.619,5.15-1.51,9.335-6.063,12.105c7.735,3.149,12.272,9.408,12.083,17.071
		L93.336,95.851z M59.964,92.518h30.028c-0.558-6.6-5.557-11.565-13.682-13.443l-1.474-0.34l-1.104,0.278
		C65.551,81.081,59.71,86.943,59.964,92.518 M75.029,57.483c-4.052,0-7.686,2.642-8.809,6.51c-0.75,2.581-0.438,4.999,0.958,7.385
		c1.276,2.185,3.305,3.544,6.571,4.403l1.505,0.396l0.886-0.306c4.009-1.382,8.635-4.314,7.899-10.422
		c-0.491-4.102-4.108-7.585-8.228-7.931C75.547,57.494,75.288,57.483,75.029,57.483"/>
	<path display="inline" fill="#FFFFFF" d="M75.001,113.518c-21.24,0-38.521-17.283-38.521-38.518
		c0-21.24,17.28-38.518,38.521-38.518c21.239,0,38.517,17.278,38.517,38.518C113.518,96.234,96.24,113.518,75.001,113.518
		 M75.001,39.821c-19.398,0-35.182,15.778-35.182,35.179c0,19.401,15.784,35.18,35.182,35.18c19.399,0,35.178-15.778,35.178-35.18
		C110.179,55.599,94.4,39.821,75.001,39.821"/>
	<path display="inline" fill="#FFFFFF" d="M39.033,131.33c-0.34,0-0.686-0.105-0.983-0.323c-0.744-0.54-0.906-1.582-0.365-2.329
		l16.514-22.634c0.543-0.741,1.585-0.908,2.333-0.362c0.744,0.541,0.906,1.589,0.365,2.33l-16.514,22.633
		C40.056,131.097,39.546,131.33,39.033,131.33"/>
</g>
<g display="none">
	<path display="inline" fill="#525252" d="M149.945,75c0,41.391-33.552,74.943-74.944,74.943c-41.394,0-74.946-33.553-74.946-74.943
		c0-41.391,33.552-74.943,74.946-74.943C116.394,0.057,149.945,33.609,149.945,75"/>
	<path display="inline" fill="#FFFFFF" d="M107.743,65.322c0,5.914-0.095,11.833,0.028,17.74c0.111,5.156-1.455,9.754-4.086,14.063
		c-3.383,5.54-7.847,10.121-12.729,14.329c-4.871,4.202-10.094,7.914-15.624,11.197c-0.226,0.133-0.699,0.1-0.937-0.045
		c-2.087-1.31-4.18-2.614-6.208-4.008c-5.766-3.957-11.139-8.382-15.884-13.532c-3.573-3.879-6.668-8.075-8.583-13.047
		c-0.967-2.503-1.491-5.089-1.488-7.792c0.014-12.944,0.017-25.891-0.014-38.838c0-0.853,0.29-1.24,1.048-1.524
		c4.759-1.792,9.681-2.965,14.683-3.804c6.758-1.14,13.565-1.569,20.428-1.304c9.542,0.371,18.85,2.057,27.917,5.042
		c1.449,0.477,1.449,0.465,1.449,2.02C107.743,52.319,107.743,58.82,107.743,65.322 M102.03,45.425
		c-1.126-0.332-2.117-0.622-3.109-0.914c-0.185-0.053-0.374-0.103-0.563-0.15c-9.213-2.319-18.564-3.311-28.058-2.882
		c-8.377,0.379-16.584,1.684-24.557,4.35c-0.663,0.223-0.825,0.524-0.825,1.182c0.02,12.301,0.011,24.601,0.02,36.905
		c0,0.836,0.042,1.683,0.145,2.514c0.404,3.249,1.672,6.191,3.335,8.979c2.062,3.461,4.604,6.532,7.563,9.386
		C71.333,85.002,86.653,65.252,102.03,45.425 M57.891,106.86c3.099,2.563,6.142,5.083,9.21,7.624
		c0.307-0.384,0.465-0.579,0.616-0.78c12.254-16.063,24.51-32.125,36.745-48.198c0.245-0.323,0.379-0.814,0.384-1.224
		c0.022-5.69,0.018-11.381,0.012-17.071c0-0.212-0.022-0.423-0.05-0.87C89.128,66.562,73.588,86.612,57.891,106.86 M104.918,69.77
		c-0.062-0.02-0.129-0.042-0.195-0.064c-11.771,15.441-23.548,30.88-35.373,46.385c1.758,1.148,3.408,2.201,5.03,3.294
		c0.421,0.284,0.728,0.262,1.115-0.017c4.054-2.948,8.223-5.746,12.146-8.856c5.022-3.979,9.525-8.505,13.059-13.917
		c2.793-4.269,4.453-8.851,4.247-14.062c-0.15-3.717-0.027-7.449-0.027-11.18C104.918,70.826,104.918,70.296,104.918,69.77"/>
	<path display="inline" fill="#FFFFFF" d="M57.163,62.934c1.89,1.803,3.871,3.695,5.922,5.648c3.581-4.113,7.14-8.204,10.754-12.359
		c0.722,0.577,1.41,1.128,2.165,1.73c-4.272,4.857-8.499,9.67-12.78,14.536c-2.686-2.595-5.339-5.155-8.003-7.73
		C55.876,64.143,56.497,63.561,57.163,62.934"/>
</g>
<g>
	<path fill="#525252" d="M149.942,75c0,41.391-33.552,74.943-74.943,74.943S0.057,116.391,0.057,75
		C0.057,33.609,33.608,0.057,75,0.057S149.942,33.609,149.942,75"/>
	<path fill="#FFFFFF" d="M50.223,71.954C49.629,56.633,60.721,44.761,74.35,44.171c16.23-0.703,26.655,12.969,26.719,25.094
		c0.039,7.744-2.873,14.047-8.249,19.404c-2.798,2.786-4.562,6.119-4.96,10.06c-0.167,1.639-0.892,2.402-2.464,2.787
		c-6.387,1.561-12.754,3.199-19.122,4.849c-1.246,0.323-2.569,0.535-2.935-0.958c-0.371-1.539,1.031-1.896,2.21-2.186
		c5.877-1.438,11.749-2.909,17.64-4.28c1.14-0.268,1.547-0.691,1.742-1.89c0.699-4.363,2.831-8.014,6.027-11.058
		c8.881-8.443,9.238-21.945,1.229-31.164c-8.508-9.795-23.232-9.302-31.264-2.16c-9.884,8.79-10.233,24.484-0.71,33.597
		c3.938,3.768,5.958,8.605,6.649,13.989c0.142,1.109-0.195,2.151-1.446,2.067c-0.565-0.039-1.46-0.925-1.538-1.51
		c-0.716-5.546-3.478-9.966-7.201-13.967C52.419,82.276,50.318,76.775,50.223,71.954"/>
	<path fill="#FFFFFF" d="M79.076,81.128c-1.658,1.02-2.956,2.458-4.135,2.363c-1.159-0.089-2.199-1.728-3.405-2.792
		c0.691,3.338,1.441,6.492,1.965,9.675c0.306,1.867,0.396,3.813,0.284,5.702c-0.042,0.663-0.878,1.678-1.511,1.822
		c-1.165,0.262-1.438-0.741-1.457-1.789c-0.098-5.713-1.123-11.225-3.406-16.503c-0.699-1.616,0.042-2.748,1.753-2.475
		c2.135,0.352,4.194,1.137,6.496,1.789c1.396-0.502,3.177-1.36,5.058-1.756c2.093-0.44,2.977,0.77,2.188,2.793
		c-1.998,5.127-3.338,10.372-3.28,15.929c0.012,0.947-0.033,2.112-1.468,2.106c-1.469-0.011-1.745-1.159-1.605-2.218
		c0.529-4.024,1.182-8.032,1.819-12.039C78.491,82.984,78.768,82.254,79.076,81.128"/>
	<path fill="#FFFFFF" d="M64.853,121.078c-0.307-0.301-1.231-0.786-1.271-1.338c-0.039-0.529,0.75-1.477,1.337-1.633
		c6.774-1.828,13.565-3.589,20.388-5.222c0.705-0.168,1.633,0.579,2.455,0.902c-0.466,0.68-0.809,1.817-1.413,1.979
		c-6.841,1.822-13.724,3.489-20.599,5.194C65.625,120.989,65.491,120.994,64.853,121.078"/>
	<path fill="#FFFFFF" d="M64.697,113.755c-0.273-0.301-1.104-0.797-1.126-1.332c-0.025-0.552,0.63-1.521,1.159-1.661
		c6.934-1.812,13.886-3.55,20.867-5.172c0.621-0.146,1.46,0.652,2.201,1.015c-0.457,0.629-0.803,1.672-1.385,1.822
		c-6.928,1.833-13.892,3.527-20.848,5.256C65.441,113.716,65.302,113.71,64.697,113.755"/>
	<path fill="#FFFFFF" d="M112.464,96.822c-0.072,1.455-1.51,2.157-2.577,1.299c-3.238-2.586-6.391-5.289-9.458-8.075
		c-0.382-0.346-0.276-1.595,0.041-2.186c0.159-0.301,1.55-0.362,1.977-0.027c3.138,2.508,6.188,5.127,9.227,7.758
		C112.088,95.947,112.291,96.544,112.464,96.822"/>
	<path fill="#FFFFFF" d="M74.239,126.462c-1.034-0.424-3.021-1.07-4.807-2.067c-0.613-0.346-1.198-1.744-0.975-2.369
		c0.451-1.242,1.661-0.764,2.5-0.233c3.344,2.123,6.507,1.905,9.695-0.396c0.448-0.328,1.435,0.084,2.173,0.15
		c-0.17,0.742-0.089,1.772-0.552,2.169C80.297,125.426,77.937,126.367,74.239,126.462"/>
	<path fill="#FFFFFF" d="M50.268,88.774c-0.493,0.736-0.803,1.488-1.349,1.968c-2.508,2.213-5.078,4.358-7.633,6.521
		c-0.875,0.736-1.996,1.26-2.67,0.067c-0.309-0.552,0.059-1.939,0.594-2.436c2.594-2.408,5.325-4.671,8.076-6.9
		c0.471-0.385,1.291-0.513,1.923-0.457C49.546,87.571,49.83,88.239,50.268,88.774"/>
	<path fill="#FFFFFF" d="M112.575,67.66c-1.774,0-3.562,0.106-5.319-0.061c-0.583-0.053-1.098-0.814-1.647-1.249
		c0.493-0.585,0.968-1.658,1.482-1.678c3.74-0.15,7.494-0.147,11.233-0.02c0.538,0.022,1.043,0.976,1.561,1.497
		c-0.529,0.49-1.025,1.352-1.597,1.407c-1.89,0.178-3.807,0.067-5.713,0.067V67.66z"/>
	<path fill="#FFFFFF" d="M107.696,40.013c-0.959,1.338-1.276,1.998-1.781,2.441c-2.257,1.995-4.503,4.016-6.899,5.833
		c-0.652,0.493-2.16,0.738-2.687,0.332c-1.168-0.897-0.187-1.831,0.621-2.542c2.357-2.079,4.696-4.18,7.117-6.187
		c0.469-0.384,1.271-0.51,1.918-0.499C106.542,39.403,107.094,39.779,107.696,40.013"/>
	<path fill="#FFFFFF" d="M38.084,67.657c-1.703,0-3.419,0.111-5.105-0.062c-0.555-0.062-1.441-0.864-1.441-1.321
		c0.003-0.552,0.777-1.558,1.249-1.577c3.595-0.142,7.201-0.156,10.798-0.028c0.519,0.017,0.998,1.009,1.494,1.552
		c-0.563,0.474-1.087,1.291-1.691,1.352c-1.753,0.184-3.534,0.067-5.303,0.067C38.084,67.646,38.084,67.651,38.084,67.657"/>
	<path fill="#FFFFFF" d="M74.091,33.478c0-1.58-0.131-3.174,0.064-4.729c0.083-0.674,0.836-1.262,1.287-1.889
		c0.574,0.61,1.608,1.195,1.642,1.833c0.17,3.216,0.17,6.446,0.006,9.662c-0.034,0.652-1.037,1.257-1.597,1.884
		c-0.465-0.674-1.24-1.307-1.337-2.032C73.946,36.652,74.091,35.055,74.091,33.478"/>
	<path fill="#FFFFFF" d="M45.04,39.291c0.588,0.337,1.079,0.527,1.458,0.85c2.338,1.998,4.709,3.968,6.931,6.092
		c0.521,0.499,0.51,1.555,0.744,2.357c-0.939-0.047-2.143,0.268-2.77-0.198c-2.363-1.75-4.587-3.698-6.747-5.696
		c-0.532-0.493-0.786-1.449-0.839-2.215C43.791,40.133,44.563,39.731,45.04,39.291"/>
</g>
<g display="none">
	<path display="inline" fill="#525252" d="M149.945,75c0,41.391-33.552,74.943-74.944,74.943C33.61,149.943,0.055,116.391,0.055,75
		c0-41.391,33.555-74.943,74.946-74.943C116.394,0.057,149.945,33.609,149.945,75"/>
	<path display="inline" fill="#FFFFFF" d="M86.754,107.519c1.098,1.184,2.034,2.209,2.981,3.221c1.7,1.806,1.478,3.946-0.574,5.34
		c-0.061,0.042-0.105,0.105-0.178,0.187c0.869,1.485,0.976,2.993-0.296,4.255c-1.281,1.269-2.814,1.204-4.336,0.368
		c-2.53,2.478-3.249,2.524-5.936,0.407c-2.295,2.346-3.156,2.438-5.792,0.543c-1.112,1.123-2.235,2.26-3.358,3.392
		c-0.204,0.206-0.404,0.412-0.613,0.613c-0.599,0.568-1.118,0.638-1.58,0.206c-0.51-0.471-0.485-1.028,0.092-1.645
		c1.059-1.126,2.126-2.246,3.188-3.372c0.234-0.248,0.465-0.498,0.722-0.774c-2.998-3.525-6.917-6.206-9.366-10.486
		c-0.817,0.875-1.597,1.717-2.391,2.542c-0.635,0.657-1.293,1.301-1.939,1.95c-0.744,0.747-1.399,0.861-1.89,0.334
		c-0.465-0.498-0.356-1.006,0.385-1.752c1.558-1.559,3.115-3.121,4.69-4.66c0.371-0.364,0.471-0.722,0.452-1.242
		c-0.047-1.057-0.46-1.823-1.224-2.572c-5.668-5.604-11.294-11.259-16.932-16.896c-0.184-0.185-0.373-0.357-0.699-0.672
		c-0.85,0.889-1.736,1.705-2.491,2.625c-1.828,2.229-4.364,1.976-5.925-0.337c-1.46,0.761-2.973,1.059-4.252-0.268
		c-1.24-1.288-1.251-2.813-0.362-4.437c-1.04-0.649-1.842-1.482-1.912-2.781c-0.07-1.293,0.602-2.235,1.516-3.043
		c-2.399-2.338-2.436-2.687-0.546-6.003c-1.229-1.192-2.486-2.41-3.745-3.631c-0.148-0.148-0.31-0.29-0.443-0.449
		c-0.407-0.496-0.435-1.025,0.022-1.482c0.474-0.471,1-0.393,1.458,0.069c1.156,1.179,2.313,2.36,3.458,3.55
		c0.215,0.226,0.376,0.502,0.56,0.752c3.718-3.057,6.262-7.12,10.487-9.489c-0.633-0.644-1.246-1.271-1.862-1.892
		c-0.853-0.855-1.711-1.703-2.558-2.561c-0.78-0.792-0.861-1.279-0.315-1.8c0.521-0.501,1.031-0.396,1.806,0.379
		c1.578,1.577,3.138,3.171,4.746,4.715c0.253,0.243,0.713,0.354,1.086,0.376c1.106,0.069,1.898-0.474,2.684-1.268
		c5.677-5.744,11.409-11.439,17.119-17.149c0.128-0.128,0.245-0.268,0.532-0.585c-0.942-0.877-1.831-1.797-2.817-2.6
		c-1.934-1.578-1.915-4.164,0.493-5.763c-0.803-1.497-1.006-3.029,0.337-4.305c1.279-1.221,2.787-1.165,4.387-0.313
		c0.619-1.076,1.471-1.842,2.77-1.912c1.288-0.069,2.227,0.616,3.043,1.511c2.282-2.397,2.645-2.433,6.008-0.538
		c1.169-1.209,2.367-2.455,3.565-3.698c0.167-0.167,0.329-0.346,0.507-0.494c0.496-0.398,1.031-0.448,1.482,0.022
		c0.463,0.479,0.391,1-0.078,1.46c-1.215,1.192-2.436,2.388-3.661,3.57c-0.185,0.181-0.435,0.292-0.646,0.432
		c3.082,3.731,7.134,6.284,9.592,10.662c0.729-0.811,1.394-1.58,2.09-2.313c0.797-0.833,1.616-1.644,2.441-2.45
		c0.523-0.51,1.192-0.554,1.616-0.147c0.463,0.446,0.429,1.009-0.14,1.585c-1.644,1.661-3.316,3.289-4.938,4.972
		c-0.246,0.253-0.362,0.708-0.379,1.084c-0.062,1.134,0.495,1.948,1.31,2.753c5.64,5.598,11.225,11.25,16.826,16.893
		c0.184,0.181,0.307,0.424,0.513,0.711c1.059-0.976,2.051-1.756,2.876-2.684c1.777-2.004,4.213-1.898,5.841,0.457
		c1.538-0.842,3.093-0.981,4.363,0.41c1.16,1.268,1.093,2.761,0.24,4.322c1.059,0.621,1.855,1.443,1.923,2.759
		c0.066,1.301-0.624,2.229-1.521,3.054c2.424,1.806,2.43,3.737,0.602,5.805c1.159,1.162,2.33,2.327,3.495,3.494
		c0.206,0.206,0.418,0.398,0.607,0.616c0.457,0.521,0.468,1.143,0.017,1.544c-0.508,0.448-1.004,0.373-1.466-0.087
		c-1.243-1.237-2.486-2.478-3.734-3.72c-0.123-0.126-0.262-0.245-0.407-0.385c-3.511,3.001-6.187,6.892-10.327,9.274
		c0.167,0.192,0.317,0.387,0.496,0.563c1.293,1.299,2.597,2.595,3.896,3.888c0.646,0.644,0.775,1.313,0.346,1.783
		c-0.479,0.527-1.02,0.449-1.75-0.262c-1.633-1.591-3.266-3.183-4.882-4.793c-0.352-0.352-0.708-0.401-1.188-0.41
		c-1.282-0.021-2.063,0.708-2.893,1.547c-5.501,5.554-11.041,11.071-16.575,16.592C87.306,107.189,87.032,107.326,86.754,107.519
		 M93.074,74.312c-0.218-0.29-0.396-0.616-0.646-0.869c-4.999-5.014-10.021-10.004-14.997-15.04
		c-0.766-0.772-1.516-1.335-2.653-1.337c-0.493,0-0.864,0.022-1.248,0.41c-5.027,5.058-10.063,10.11-15.132,15.121
		c-0.761,0.75-1.31,1.471-1.318,2.586c0,0.535,0.042,0.917,0.443,1.318c5.058,5.027,10.105,10.063,15.124,15.129
		c0.7,0.705,1.379,1.207,2.419,1.327c0.661,0.075,1.031-0.059,1.477-0.508c5.006-5.038,10.011-10.079,15.089-15.054
		C92.528,76.516,92.968,75.604,93.074,74.312 M73.206,94.824c-0.108,0.087-0.401,0.24-0.577,0.477
		c-2.622,3.64-5.501,7.018-9.391,9.395c-0.192,0.12-0.329,0.521-0.31,0.78c0.167,2.377,1.003,4.486,2.645,6.242
		c0.61,0.649,1.251,1.271,1.884,1.903c2.276,2.282,4.548,4.573,6.853,6.827c0.304,0.298,0.822,0.558,1.215,0.524
		c0.346-0.031,0.841-0.449,0.925-0.78c0.092-0.374-0.078-0.959-0.352-1.249c-1.379-1.474-2.831-2.879-4.252-4.313
		c-0.563-0.568-0.641-1.221-0.223-1.667c0.449-0.481,1.009-0.426,1.636,0.188c0.953,0.936,1.889,1.889,2.834,2.834
		c1.409,1.41,2.818,2.82,4.234,4.219c0.607,0.594,1.31,0.619,1.806,0.111c0.49-0.499,0.462-1.137-0.084-1.75
		c-0.14-0.156-0.29-0.301-0.44-0.448c-1.872-1.873-3.745-3.746-5.616-5.618c-0.15-0.147-0.301-0.293-0.443-0.446
		c-0.529-0.576-0.583-1.248-0.134-1.669c0.455-0.429,1.001-0.371,1.583,0.209c1.785,1.778,3.558,3.564,5.335,5.345
		c0.947,0.947,1.89,1.896,2.837,2.84c0.697,0.691,1.371,0.758,1.917,0.209c0.547-0.555,0.469-1.188-0.229-1.914
		c-0.095-0.095-0.184-0.189-0.278-0.284c-2.469-2.5-4.938-5-7.407-7.499c-0.184-0.188-0.373-0.371-0.546-0.566
		c-0.479-0.543-0.519-1.215-0.056-1.607c0.546-0.472,1.053-0.315,1.521,0.156c1.649,1.655,3.3,3.305,4.949,4.954
		c0.574,0.577,1.137,1.162,1.733,1.711c0.496,0.457,1.059,0.472,1.561,0.028c0.523-0.463,0.49-1.018,0.095-1.547
		c-0.206-0.273-0.457-0.51-0.697-0.749c-2.814-2.817-5.635-5.633-8.46-8.45c-0.869-0.869-1.02-1.477-0.496-2.003
		c0.507-0.508,1.059-0.368,1.923,0.498c1.17,1.165,2.33,2.342,3.512,3.498c0.618,0.607,1.259,0.63,1.794,0.103
		c0.508-0.507,0.469-1.179-0.145-1.792c-1.9-1.917-3.79-3.848-5.729-5.731C78.276,95.979,76.004,95.062,73.206,94.824
		 M44.804,62.889c-2.77,0.187-4.974,1.109-6.789,2.898c-1.494,1.477-2.968,2.968-4.45,4.453c-1.394,1.394-2.809,2.759-4.152,4.194
		c-0.273,0.293-0.451,0.875-0.362,1.246c0.081,0.337,0.569,0.766,0.912,0.799c0.39,0.042,0.908-0.223,1.218-0.513
		c1.368-1.298,2.684-2.656,4.024-3.99c0.764-0.767,1.298-0.878,1.811-0.382c0.532,0.521,0.44,1.031-0.326,1.803
		c-0.404,0.41-0.814,0.817-1.221,1.227c-1.892,1.892-3.804,3.762-5.654,5.696c-0.29,0.304-0.468,0.908-0.387,1.314
		c0.064,0.321,0.588,0.744,0.934,0.77c0.393,0.033,0.903-0.239,1.209-0.535c2.14-2.087,4.241-4.219,6.356-6.326
		c0.635-0.633,1.137-0.677,1.636-0.187c0.482,0.474,0.432,1.017-0.179,1.632c-1.109,1.121-2.224,2.229-3.335,3.345
		c-1.65,1.649-3.302,3.299-4.955,4.946c-0.432,0.432-0.691,0.978-0.295,1.472c0.27,0.331,0.797,0.582,1.229,0.615
		c0.301,0.022,0.683-0.34,0.95-0.604c2.7-2.681,5.384-5.376,8.076-8.064c0.566-0.563,1.218-0.622,1.667-0.185
		c0.471,0.463,0.41,1.018-0.206,1.636c-1.276,1.285-2.561,2.562-3.837,3.841c-0.892,0.889-1.792,1.77-2.667,2.675
		c-0.535,0.558-0.529,1.273-0.033,1.753c0.479,0.463,1.128,0.446,1.686-0.056c0.198-0.173,0.379-0.365,0.566-0.549
		c2.948-2.951,5.894-5.902,8.842-8.851c0.61-0.607,1.262-0.666,1.722-0.182c0.432,0.457,0.354,1.018-0.262,1.639
		c-1.256,1.266-2.53,2.514-3.776,3.79c-0.755,0.774-0.496,1.956,0.482,2.06c0.412,0.042,0.978-0.206,1.293-0.513
		c1.817-1.742,3.567-3.553,5.364-5.317c1.875-1.842,2.901-4.074,3.241-6.657c0.078-0.585-0.072-0.937-0.59-1.29
		c-3.62-2.483-6.811-5.409-9.174-9.16C45.219,63.092,44.899,62.961,44.804,62.889 M105.213,86.952
		c2.547-0.039,5.122-1.229,6.956-3.052c2.803-2.795,5.623-5.567,8.443-8.349c0.558-0.546,0.602-1.209,0.105-1.739
		c-0.479-0.521-1.164-0.541-1.738,0.011c-0.869,0.833-1.711,1.7-2.563,2.556c-0.669,0.666-1.321,1.349-2.007,1.995
		c-0.412,0.393-0.903,0.438-1.354,0.061c-0.424-0.364-0.552-0.833-0.229-1.329c0.146-0.217,0.346-0.396,0.529-0.579
		c2.263-2.263,4.521-4.529,6.789-6.783c0.501-0.496,0.746-1.025,0.351-1.677c-0.445-0.733-1.293-0.752-1.995-0.05
		c-2.157,2.146-4.297,4.303-6.454,6.451c-0.597,0.602-1.159,0.632-1.639,0.123c-0.445-0.465-0.39-0.995,0.179-1.577
		c0.735-0.747,1.482-1.482,2.224-2.224c2.023-2.023,4.052-4.035,6.059-6.069c0.702-0.702,0.646-1.563-0.095-1.992
		c-0.63-0.362-1.148-0.134-1.616,0.34c-1.795,1.806-3.596,3.603-5.396,5.403c-0.98,0.981-1.95,1.979-2.954,2.943
		c-0.651,0.63-1.649,0.413-1.772-0.418c-0.05-0.359,0.185-0.87,0.457-1.148c2.085-2.14,4.214-4.238,6.326-6.356
		c0.68-0.686,0.758-1.385,0.229-1.923c-0.529-0.538-1.215-0.454-1.912,0.24c-2.24,2.213-4.475,4.423-6.716,6.635
		c-0.897,0.883-1.794,1.764-2.697,2.645c-0.385,0.376-0.869,0.51-1.265,0.159c-0.273-0.239-0.457-0.696-0.463-1.059
		c-0.006-0.271,0.307-0.58,0.54-0.814c1.216-1.234,2.441-2.455,3.673-3.67c0.513-0.504,0.691-1.059,0.251-1.683
		c-0.479-0.691-1.248-0.691-1.945,0c-1.789,1.77-3.55,3.57-5.345,5.331c-1.783,1.752-2.837,3.854-3.232,6.326
		c-0.14,0.853,0.022,1.346,0.77,1.875c3.506,2.491,6.693,5.314,8.979,9.029C104.817,86.802,105.141,86.905,105.213,86.952
		 M87.094,44.775c-0.161-2.714-1.075-4.871-2.792-6.666c-0.926-0.967-1.884-1.897-2.831-2.845c-1.945-1.948-3.89-3.901-5.843-5.838
		c-0.683-0.68-1.485-0.666-1.959,0.02c-0.443,0.638-0.215,1.184,0.284,1.68c1.449,1.444,2.901,2.884,4.335,4.342
		c0.468,0.477,0.484,1.14,0.089,1.552c-0.429,0.446-0.988,0.426-1.522-0.089c-0.7-0.674-1.38-1.368-2.065-2.057
		c-1.706-1.705-3.4-3.419-5.119-5.113c-0.78-0.769-1.939-0.538-2.073,0.443c-0.056,0.413,0.184,0.987,0.485,1.299
		c2.079,2.148,4.208,4.244,6.317,6.365c0.594,0.594,0.669,1.282,0.209,1.722c-0.468,0.446-1.017,0.368-1.644-0.253
		c-1.485-1.48-2.965-2.968-4.448-4.451c-1.282-1.279-2.566-2.555-3.843-3.837c-0.443-0.443-0.947-0.574-1.494-0.253
		c-0.504,0.292-0.75,0.772-0.555,1.335c0.104,0.307,0.351,0.583,0.583,0.819c2.684,2.733,5.375,5.454,8.065,8.185
		c0.596,0.604,0.655,1.285,0.178,1.725c-0.493,0.452-0.986,0.382-1.633-0.265c-1.748-1.736-3.489-3.483-5.231-5.228
		c-0.462-0.46-0.911-0.948-1.404-1.371c-0.507-0.44-1.076-0.421-1.558,0.047c-0.474,0.454-0.429,0.992-0.069,1.494
		c0.184,0.253,0.418,0.471,0.641,0.694c2.893,2.893,5.786,5.782,8.678,8.678c0.752,0.752,0.864,1.391,0.332,1.884
		c-0.499,0.462-1.028,0.332-1.806-0.443c-1.167-1.17-2.332-2.344-3.502-3.509c-0.666-0.66-1.332-0.733-1.859-0.223
		c-0.558,0.538-0.496,1.24,0.181,1.92c1.758,1.761,3.536,3.506,5.281,5.289c1.812,1.853,3.996,2.92,6.555,3.277
		c0.666,0.089,1.075-0.039,1.493-0.646c2.49-3.615,5.422-6.797,9.178-9.154C86.943,45.168,87.049,44.848,87.094,44.775
		 M61.575,46.865c-0.039,0.034-0.165,0.123-0.273,0.234c-4.684,4.726-9.366,9.463-14.064,14.176c-0.398,0.396-0.329,0.694-0.1,1.09
		c2.202,3.74,5.23,6.652,8.929,8.89c0.457,0.281,0.663,0.002,0.922-0.257c4.798-4.762,9.6-9.522,14.401-14.287
		c0.173-0.173,0.332-0.368,0.494-0.552C67.736,53.785,65.058,49.922,61.575,46.865 M102.983,61.554
		c-0.044-0.053-0.15-0.198-0.278-0.326c-4.648-4.69-9.308-9.377-13.939-14.087c-0.423-0.435-0.725-0.348-1.143-0.086
		c-3.601,2.244-6.521,5.153-8.761,8.762c-0.302,0.488-0.273,0.786,0.15,1.201c4.369,4.339,8.728,8.7,13.075,13.064
		c0.568,0.565,1.075,1.195,1.649,1.842C96.128,67.648,99.985,65.026,102.983,61.554 M47.017,88.438
		c0.07,0.081,0.218,0.259,0.379,0.421c4.528,4.528,9.073,9.031,13.565,13.591c0.641,0.646,1.079,0.66,1.784,0.217
		c3.478-2.201,6.265-5.063,8.427-8.555c0.304-0.49,0.201-0.761-0.173-1.132c-4.093-4.068-8.17-8.15-12.242-12.241
		c-0.847-0.848-1.653-1.731-2.517-2.643C53.875,82.329,50.013,84.945,47.017,88.438 M78.422,93.857
		c4.035,2.216,6.565,6.125,10.032,9.11c0.044-0.034,0.2-0.159,0.345-0.302c4.638-4.562,9.264-9.132,13.929-13.666
		c0.519-0.507,0.474-0.855,0.145-1.393c-1.544-2.509-3.494-4.657-5.757-6.519c-1.115-0.922-2.353-1.705-3.428-2.48
		C88.498,83.792,83.454,88.825,78.422,93.857"/>
</g>
<g display="none">
	<path display="inline" fill="#525252" d="M149.991,75.001c0,41.417-33.574,74.989-74.991,74.989S0.009,116.418,0.009,75.001
		S33.583,0.01,75,0.01S149.991,33.584,149.991,75.001"/>
	<path display="inline" fill="#FFFFFF" d="M115.901,101.111H92.437V87.429c-3.999,2.828-8.799,4.607-14.603,5.41
		c-1.727,0.243-3.27,0.048-4.513-0.767c-1.931-1.267-2.84-3.553-2.315-5.829c0.544-2.346,2.41-3.936,4.99-4.25
		c3.193-0.385,5.851-1.146,8.133-2.329c2.108-1.094,3.99-2.697,6.1-5.196l0.831-1.001c0.953-1.146,1.936-2.334,3.034-3.419
		c2.934-2.904,6.013-4.189,9.613-3.908c0.48,0.036,0.963,0.045,1.445,0.045l1.285-0.009c0.804,0,1.663,0.02,2.555,0.156
		c4.898,0.748,8.334,4.789,8.354,9.826c0.02,3.999,0.014,7.996,0.012,11.995l-0.003,4.87l0.003,5.996l-0.093,1.854L115.901,101.111z
		 M95.293,98.256h19.208l-0.003-5.232l0.003-4.872c0.003-3.994,0.009-7.988-0.011-11.982c-0.015-3.601-2.452-6.484-5.93-7.014
		c-0.7-0.106-1.408-0.123-2.123-0.123l-1.285,0.009c-0.555,0-1.113-0.012-1.665-0.057c-2.739-0.194-5.034,0.771-7.386,3.094
		c-0.998,0.984-1.891,2.066-2.839,3.213l-0.851,1.018c-2.329,2.762-4.544,4.633-6.97,5.891c-2.591,1.345-5.567,2.203-9.104,2.627
		c-0.971,0.12-2.203,0.575-2.55,2.059c-0.256,1.115,0.165,2.187,1.1,2.8c0.652,0.427,1.542,0.466,2.555,0.327
		c6.164-0.854,11.062-2.879,14.972-6.195c0.212-0.184,0.432-0.29,0.607-0.373l2.048-0.99l0.223,2.164V98.256z"/>
	<path display="inline" fill="#FFFFFF" d="M57.624,101.098H32.641l0.005-24.633c0.009-6.063,4.257-10.306,10.331-10.319l2.393,0.03
		c0.396,0,0.789-0.008,1.183-0.036c3.297-0.206,6.236,0.965,9.109,3.662c1.112,1.052,2.236,2.318,3.536,3.988
		c3.261,4.184,7.182,6.686,11.987,7.647c0.185,0.036,0.362,0.087,0.563,0.146l1.721,0.502l-0.649,1.629
		c-2.039,3.662-1.986,3.96-0.642,6.743l1.188,2.463l-2.699-0.43c-2.864-0.457-5.528-1.227-8.133-2.354
		c-1.662-0.717-3.283-1.632-4.909-2.77V101.098z M35.496,98.241h19.272V81.435l2.343,1.941c2.209,1.835,4.351,3.188,6.554,4.139
		c1.602,0.692,3.225,1.236,4.915,1.646c-0.475-1.695-0.215-3.015,0.87-5.189c-4.92-1.256-9.123-4.086-12.507-8.426
		c-1.227-1.576-2.226-2.706-3.24-3.665c-2.298-2.156-4.446-3.057-6.95-2.89c-0.458,0.031-0.921,0.042-1.384,0.042l-2.328-0.03
		c-4.527,0.008-7.533,3.009-7.539,7.469L35.496,98.241z"/>
	<path display="inline" fill="#FFFFFF" d="M104.865,66.798h-0.02c-5.916,0-10.752-4.822-10.785-10.749
		c-0.017-2.847,1.099-5.55,3.14-7.613c2.048-2.067,4.747-3.213,7.604-3.225c5.99,0,10.85,4.831,10.877,10.766
		c0.017,2.87-1.093,5.575-3.118,7.617C110.516,65.654,107.782,66.793,104.865,66.798z M104.851,48.067
		c-2.128,0.008-4.11,0.854-5.619,2.379c-1.507,1.52-2.326,3.503-2.315,5.586c0.022,4.362,3.581,7.91,7.93,7.91v1.428l0.014-1.428
		c2.153-0.006,4.167-0.843,5.676-2.362c1.486-1.498,2.301-3.483,2.29-5.59C112.803,51.623,109.227,48.067,104.851,48.067z"/>
	<path display="inline" fill="#FFFFFF" d="M45.144,66.795c-5.988,0-10.735-4.702-10.813-10.704
		c-0.033-2.842,1.055-5.542,3.063-7.603c2.03-2.081,4.741-3.244,7.637-3.277c5.969,0,10.808,4.789,10.907,10.674
		c0.048,2.842-1.034,5.547-3.054,7.619c-2.03,2.092-4.738,3.261-7.619,3.291H45.144z M45.146,48.067
		c-2.215,0.024-4.212,0.881-5.709,2.418c-1.476,1.512-2.276,3.491-2.251,5.569c0.056,4.424,3.553,7.885,7.957,7.885v1.428
		l0.089-1.428c2.114-0.022,4.105-0.884,5.604-2.427c1.483-1.522,2.281-3.506,2.245-5.578C53.006,51.595,49.447,48.067,45.146,48.067
		z"/>
</g>
</svg>
