<?xml version="1.0" encoding="utf-8"?>
<!-- Generator: Adobe Illustrator 16.0.0, SVG Export Plug-In . SVG Version: 6.00 Build 0)  -->
<!DOCTYPE svg PUBLIC "-//W3C//DTD SVG 1.1//EN" "http://www.w3.org/Graphics/SVG/1.1/DTD/svg11.dtd">
<svg version="1.1" id="Layer_1" xmlns="http://www.w3.org/2000/svg" xmlns:xlink="http://www.w3.org/1999/xlink" x="0px" y="0px"
	 width="320.579px" height="320.579px" viewBox="0 0 320.579 320.579" enable-background="new 0 0 320.579 320.579"
	 xml:space="preserve">
<rect fill="#FFFFFF" width="320.579" height="320.579"/>
<g>
	<defs>
		<rect id="SVGID_1_" width="320.579" height="320.579"/>
	</defs>
	<clipPath id="SVGID_2_">
		<use xlink:href="#SVGID_1_"  overflow="visible"/>
	</clipPath>
	
		<rect x="-1240.942" y="-1254.308" clip-path="url(#SVGID_2_)" fill="none" stroke="#231F20" stroke-miterlimit="10" width="2073.905" height="1692.766"/>
</g>
<g>
	<defs>
		<rect id="SVGID_3_" width="320.579" height="320.579"/>
	</defs>
	<clipPath id="SVGID_4_">
		<use xlink:href="#SVGID_3_"  overflow="visible"/>
	</clipPath>
	<path clip-path="url(#SVGID_4_)" fill="#525252" d="M160.289,320.579L160.289,320.579C71.764,320.579,0,248.815,0,160.29v-0.001
		C0,71.764,71.764,0,160.289,0s160.289,71.764,160.289,160.289v0.001C320.578,248.815,248.814,320.579,160.289,320.579"/>
</g>
<rect x="92.445" y="150.245" fill="#FFFFFF" width="135.263" height="76.183"/>
<rect x="92.445" y="150.245" fill="none" stroke="#525252" stroke-width="2.835" stroke-miterlimit="10" width="135.263" height="76.183"/>
<polygon fill="#FFFFFF" points="112.485,86.613 82.188,142.5 160.159,142.5 160.159,86.613 "/>
<polygon fill="none" stroke="#525252" stroke-width="2.835" stroke-miterlimit="10" points="112.485,86.613 82.188,142.5 
	160.159,142.5 160.159,86.613 "/>
<line fill="#FFFFFF" x1="120.748" y1="142.5" x2="135.184" y2="86.613"/>
<line fill="none" stroke="#525252" stroke-width="2.835" stroke-miterlimit="10" x1="120.748" y1="142.5" x2="135.184" y2="86.613"/>
<polygon fill="#FFFFFF" points="208.094,86.613 238.391,142.5 160.42,142.5 160.42,86.613 "/>
<polygon fill="none" stroke="#525252" stroke-width="2.835" stroke-miterlimit="10" points="208.094,86.613 238.391,142.5 
	160.42,142.5 160.42,86.613 "/>
<line fill="#FFFFFF" x1="199.831" y1="142.5" x2="185.396" y2="86.613"/>
<line fill="none" stroke="#525252" stroke-width="2.835" stroke-miterlimit="10" x1="199.831" y1="142.5" x2="185.396" y2="86.613"/>
<g>
	<defs>
		<rect id="SVGID_5_" width="320.579" height="320.579"/>
	</defs>
	<clipPath id="SVGID_6_">
		<use xlink:href="#SVGID_5_"  overflow="visible"/>
	</clipPath>
	<path clip-path="url(#SVGID_6_)" fill="#FFFFFF" d="M82.188,143.155c0,10.648,8.632,19.28,19.28,19.28s19.28-8.632,19.28-19.28
		H82.188z"/>
	<path clip-path="url(#SVGID_6_)" fill="none" stroke="#525252" stroke-width="2.835" stroke-miterlimit="10" d="M82.188,143.155
		c0,10.648,8.632,19.28,19.28,19.28s19.28-8.632,19.28-19.28H82.188z"/>
	<path clip-path="url(#SVGID_6_)" fill="#FFFFFF" d="M120.748,143.155c0,10.648,8.632,19.28,19.28,19.28
		c10.648,0,19.28-8.632,19.28-19.28H120.748z"/>
	<path clip-path="url(#SVGID_6_)" fill="none" stroke="#525252" stroke-width="2.835" stroke-miterlimit="10" d="M120.748,143.155
		c0,10.648,8.632,19.28,19.28,19.28c10.648,0,19.28-8.632,19.28-19.28H120.748z"/>
	<path clip-path="url(#SVGID_6_)" fill="#FFFFFF" d="M160.846,143.155c0,10.648,8.632,19.28,19.28,19.28
		c10.647,0,19.279-8.632,19.279-19.28H160.846z"/>
	<path clip-path="url(#SVGID_6_)" fill="none" stroke="#525252" stroke-width="2.835" stroke-miterlimit="10" d="M160.846,143.155
		c0,10.648,8.632,19.28,19.28,19.28c10.647,0,19.279-8.632,19.279-19.28H160.846z"/>
	<path clip-path="url(#SVGID_6_)" fill="#FFFFFF" d="M199.405,143.155c0,10.648,8.632,19.28,19.28,19.28s19.28-8.632,19.28-19.28
		H199.405z"/>
	<path clip-path="url(#SVGID_6_)" fill="none" stroke="#525252" stroke-width="2.835" stroke-miterlimit="10" d="M199.405,143.155
		c0,10.648,8.632,19.28,19.28,19.28s19.28-8.632,19.28-19.28H199.405z"/>
	<path clip-path="url(#SVGID_6_)" fill="#FFFFFF" d="M242.652,245.462H77.926v-16.509c0-3.449,2.796-6.245,6.246-6.245h152.235
		c3.449,0,6.245,2.796,6.245,6.245V245.462z"/>
	<path clip-path="url(#SVGID_6_)" fill="none" stroke="#525252" stroke-width="2.835" stroke-miterlimit="10" d="M242.652,245.462
		H77.926v-16.509c0-3.449,2.796-6.245,6.246-6.245h152.235c3.449,0,6.245,2.796,6.245,6.245V245.462z"/>
	<rect x="113.967" y="178.874" clip-path="url(#SVGID_6_)" fill="#525252" width="32.231" height="43.833"/>
	<rect x="166.772" y="172.322" clip-path="url(#SVGID_6_)" fill="#525252" width="42.559" height="30.729"/>
</g>
</svg>
