<?xml version="1.0" encoding="utf-8"?>
<!-- Generator: Adobe Illustrator 16.0.0, SVG Export Plug-In . SVG Version: 6.00 Build 0)  -->
<!DOCTYPE svg PUBLIC "-//W3C//DTD SVG 1.1//EN" "http://www.w3.org/Graphics/SVG/1.1/DTD/svg11.dtd">
<svg version="1.1" id="Layer_1" xmlns="http://www.w3.org/2000/svg" xmlns:xlink="http://www.w3.org/1999/xlink" x="0px" y="0px"
	 width="320.579px" height="320.579px" viewBox="0 0 320.579 320.579" enable-background="new 0 0 320.579 320.579"
	 xml:space="preserve">
<rect fill="#FFFFFF" width="320.579" height="320.579"/>
<g>
	<defs>
		<rect id="SVGID_1_" width="320.579" height="320.579"/>
	</defs>
	<clipPath id="SVGID_2_">
		<use xlink:href="#SVGID_1_"  overflow="visible"/>
	</clipPath>
	
		<rect x="-128.935" y="-1254.308" clip-path="url(#SVGID_2_)" fill="none" stroke="#231F20" stroke-miterlimit="10" width="2073.905" height="1692.766"/>
</g>
<g>
	<defs>
		<rect id="SVGID_3_" width="320.579" height="320.579"/>
	</defs>
	<clipPath id="SVGID_4_">
		<use xlink:href="#SVGID_3_"  overflow="visible"/>
	</clipPath>
	<path clip-path="url(#SVGID_4_)" fill="#525252" d="M160.289,320.579L160.289,320.579C71.764,320.579,0,248.815,0,160.29v-0.001
		C0,71.764,71.764,0,160.289,0s160.289,71.764,160.289,160.289v0.001C320.578,248.815,248.814,320.579,160.289,320.579"/>
</g>
<g>
	<defs>
		<rect id="SVGID_5_" width="320.579" height="320.579"/>
	</defs>
	<clipPath id="SVGID_6_">
		<use xlink:href="#SVGID_5_"  overflow="visible"/>
	</clipPath>
	<path clip-path="url(#SVGID_6_)" fill="#FFFFFF" d="M67.832,113.147l56.414-26.118c2.946-1.363,6.312,0.788,6.312,4.034v122.184
		c0,1.707-0.978,3.265-2.516,4.005l-56.414,16.162c-2.951,1.421-6.373-0.729-6.373-4.005V117.182
		C65.255,115.45,66.26,113.875,67.832,113.147"/>
	<path clip-path="url(#SVGID_6_)" fill="none" stroke="#525252" stroke-width="2.835" stroke-miterlimit="10" d="M67.832,113.147
		l56.414-26.118c2.946-1.363,6.312,0.788,6.312,4.034v122.184c0,1.707-0.978,3.265-2.516,4.005l-56.414,16.162
		c-2.951,1.421-6.373-0.729-6.373-4.005V117.182C65.255,115.45,66.26,113.875,67.832,113.147z"/>
	<path clip-path="url(#SVGID_6_)" fill="#FFFFFF" d="M193.284,102.147L136.87,87.03c-2.946-1.364-6.312,0.787-6.312,4.033v122.184
		c0,1.707,0.978,3.265,2.516,4.004l56.414,16.163c2.951,1.421,6.373-0.729,6.373-4.005V106.182
		C195.861,104.449,194.856,102.875,193.284,102.147"/>
	<path clip-path="url(#SVGID_6_)" fill="none" stroke="#525252" stroke-width="2.835" stroke-miterlimit="10" d="M193.284,102.147
		L136.87,87.03c-2.946-1.364-6.312,0.787-6.312,4.033v122.184c0,1.707,0.978,3.265,2.516,4.004l56.414,16.163
		c2.951,1.421,6.373-0.729,6.373-4.005V106.182C195.861,104.449,194.856,102.875,193.284,102.147z"/>
	<path clip-path="url(#SVGID_6_)" fill="#FFFFFF" d="M198.439,102.147l56.414-15.117c2.945-1.364,6.312,0.787,6.312,4.033v111.184
		c0,1.707-0.978,3.265-2.516,4.004l-56.414,27.163c-2.951,1.421-6.373-0.729-6.373-4.005V106.182
		C195.862,104.449,196.867,102.875,198.439,102.147"/>
	<path clip-path="url(#SVGID_6_)" fill="none" stroke="#525252" stroke-width="2.835" stroke-miterlimit="10" d="M198.439,102.147
		l56.414-15.117c2.945-1.364,6.312,0.787,6.312,4.033v111.184c0,1.707-0.978,3.265-2.516,4.004l-56.414,27.163
		c-2.951,1.421-6.373-0.729-6.373-4.005V106.182C195.862,104.449,196.867,102.875,198.439,102.147z"/>
	<path clip-path="url(#SVGID_6_)" fill="#525252" d="M97.814,133.729c0,0,16.958,11.733,16.958,27.133c0,15.4,0,19.8-13.295,4.4
		C88.184,149.861,78.758,125.662,97.814,133.729"/>
	<path clip-path="url(#SVGID_6_)" fill="#525252" d="M142.446,130.613c-7.333,8.663-17.967,10.633-20.167,15.033
		c-2.2,4.4,7.179,17.933,7.179,19.049c0,1.118,7.121,8.451,12.988,4.052c5.867-4.4,8.528-19.141,15.264-18.371
		S149.509,122.269,142.446,130.613"/>
	<path clip-path="url(#SVGID_6_)" fill="#525252" d="M121.022,177.913c3.947-5.104,15.039,0.832,23.839,5.183
		c8.8,4.35,10.266,5.084,5.866,7.284c-4.4,2.2-3.836,2.933-13.651,0C127.261,187.445,114.783,185.979,121.022,177.913"/>
	<path clip-path="url(#SVGID_6_)" fill="#525252" d="M169.908,140.94c0.529-0.684,1.163-1.287,1.931-1.784
		c3.811-2.465,9.282-0.428,13.455-0.497c5.008-0.081,10.354-1.15,15.168-2.482c0,0,1.952,5.055-2.835,8.958
		s-21.873,2.382-20.837,5.549s-2.36,6.203,3.481,5.65c5.841-0.552,8.812-5.584,13.864-4.026c5.054,1.558,9.324,2.478,0.667,7.046
		c-4.639,2.448-8.453,2.801-10.904,3.538c-1.767,0.53-2.635,2.385-1.822,3.906c1.387,2.6,4.761,6.828,6.946,7.031
		c3.616,0.336-6.762,7.426-11.049,1.045c-4.286-6.38-3.292-15.329-5.131-11.406c-1.838,3.922,0.102,16.633-6.312,11.132
		c-6.412-5.499-3.384-13.393-1.402-17.242C167.404,152.941,166.538,145.295,169.908,140.94"/>
	<path clip-path="url(#SVGID_6_)" fill="#525252" d="M164.31,189.014c0,0,21.403-0.999,20.304,0
		c-1.102,0.999-6.695,5.399-10.132,5.399c-3.436,0-6.167,4.4-12.867,0C154.912,190.013,161.198,189.146,164.31,189.014"/>
	<path clip-path="url(#SVGID_6_)" fill="#525252" d="M222.448,152.835c0,0-4.302-7.594-7.969-3.866
		c-3.666,3.728-9.166,9.883-9.166,9.883s11,12.763,14.666,8.437c3.667-4.326,6.601-5.443,6.601-5.443s5.5,11.334,11.367,15.384
		c4.34,2.996,3.859-17.388,3.888-27.626c0.009-3.179-3.193-5.366-6.147-4.192C233,146.479,228.027,150.321,222.448,152.835"/>
	<path clip-path="url(#SVGID_6_)" fill="#525252" d="M205.101,183.524c0,0-8.185,3.505-12.946,7.854
		c-4.763,4.351,2.652,5.002,10.195,2.667C209.893,191.71,221.386,181.841,205.101,183.524"/>
	<path clip-path="url(#SVGID_6_)" fill="#FFFFFF" d="M140.679,153.605c0,7.935-14.368,23.348-14.368,23.348
		s-14.368-15.413-14.368-23.348s6.432-14.368,14.368-14.368C134.246,139.237,140.679,145.67,140.679,153.605"/>
	<path clip-path="url(#SVGID_6_)" fill="none" stroke="#525252" stroke-width="2.835" stroke-miterlimit="10" d="M140.679,153.605
		c0,7.935-14.368,23.348-14.368,23.348s-14.368-15.413-14.368-23.348s6.432-14.368,14.368-14.368
		C134.246,139.237,140.679,145.67,140.679,153.605z"/>
	<path clip-path="url(#SVGID_6_)" fill="#525252" d="M133.875,153.006c0,4.177-3.386,7.564-7.564,7.564
		c-4.177,0-7.563-3.387-7.563-7.564c0-4.177,3.386-7.564,7.563-7.564C130.488,145.442,133.875,148.829,133.875,153.006"/>
	
		<circle clip-path="url(#SVGID_6_)" fill="none" stroke="#FFFFFF" stroke-width="2.835" stroke-miterlimit="10" cx="126.311" cy="153.006" r="7.563"/>
	<path clip-path="url(#SVGID_6_)" fill="#FFFFFF" d="M167.498,120.208c0,7.935-14.368,23.348-14.368,23.348
		s-14.368-15.413-14.368-23.348s6.432-14.368,14.368-14.368C161.065,105.84,167.498,112.272,167.498,120.208"/>
	<path clip-path="url(#SVGID_6_)" fill="none" stroke="#525252" stroke-width="2.835" stroke-miterlimit="10" d="M167.498,120.208
		c0,7.935-14.368,23.348-14.368,23.348s-14.368-15.413-14.368-23.348s6.432-14.368,14.368-14.368
		C161.065,105.84,167.498,112.272,167.498,120.208z"/>
	<path clip-path="url(#SVGID_6_)" fill="#525252" d="M160.693,119.609c0,4.177-3.386,7.564-7.564,7.564
		c-4.177,0-7.563-3.387-7.563-7.564c0-4.177,3.386-7.564,7.563-7.564C157.308,112.045,160.693,115.432,160.693,119.609"/>
	
		<circle clip-path="url(#SVGID_6_)" fill="none" stroke="#FFFFFF" stroke-width="2.835" stroke-miterlimit="10" cx="153.13" cy="119.609" r="7.563"/>
	<path clip-path="url(#SVGID_6_)" fill="#FFFFFF" d="M232.52,130.986c0,7.935-14.368,23.348-14.368,23.348
		s-14.368-15.413-14.368-23.348s6.432-14.368,14.368-14.368C226.086,116.618,232.52,123.051,232.52,130.986"/>
	<path clip-path="url(#SVGID_6_)" fill="none" stroke="#525252" stroke-width="2.835" stroke-miterlimit="10" d="M232.52,130.986
		c0,7.935-14.368,23.348-14.368,23.348s-14.368-15.413-14.368-23.348s6.432-14.368,14.368-14.368
		C226.086,116.618,232.52,123.051,232.52,130.986z"/>
	<path clip-path="url(#SVGID_6_)" fill="#525252" d="M225.715,130.387c0,4.177-3.387,7.564-7.564,7.564
		c-4.177,0-7.563-3.387-7.563-7.564c0-4.177,3.386-7.564,7.563-7.564C222.328,122.823,225.715,126.21,225.715,130.387"/>
	
		<circle clip-path="url(#SVGID_6_)" fill="none" stroke="#FFFFFF" stroke-width="2.835" stroke-miterlimit="10" cx="218.151" cy="130.387" r="7.563"/>
</g>
</svg>
