<?xml version="1.0" encoding="utf-8"?>
<!-- Generator: Adobe Illustrator 16.0.0, SVG Export Plug-In . SVG Version: 6.00 Build 0)  -->
<!DOCTYPE svg PUBLIC "-//W3C//DTD SVG 1.1//EN" "http://www.w3.org/Graphics/SVG/1.1/DTD/svg11.dtd">
<svg version="1.1" id="Layer_1" xmlns="http://www.w3.org/2000/svg" xmlns:xlink="http://www.w3.org/1999/xlink" x="0px" y="0px"
	 width="150px" height="150px" viewBox="0 0 150 150" enable-background="new 0 0 150 150" xml:space="preserve">
<path display="none" fill="#717271" d="M144.261,143.866c-2.606,0-4.722-2.11-4.722-4.721V36.005l-33.597-19.938L53.476,35.73
	v31.621l18.789-6.644c1.442-0.515,3.048-0.289,4.298,0.596c1.255,0.88,1.995,2.317,1.995,3.856v57.645
	c0,2.602-2.115,4.722-4.716,4.722H48.754c-2.601,0-4.721-2.12-4.721-4.722V80.702l-33.572,11.88v46.563
	c0,2.61-2.116,4.721-4.721,4.721c-2.611,0-4.721-2.11-4.721-4.721V89.246c0-2,1.259-3.779,3.144-4.452l39.871-14.101V32.461
	c0-1.966,1.221-3.731,3.067-4.418L104.75,6.432c1.337-0.5,2.837-0.365,4.067,0.361l37.852,22.471
	c1.433,0.851,2.313,2.39,2.313,4.053v105.828C148.981,141.756,146.866,143.866,144.261,143.866 M53.476,118.083H69.12V71.832
	l-15.645,5.534V118.083z"/>
<path display="none" fill="#717271" d="M75,124.083c-2.61,0-4.721-2.115-4.721-4.722V30.639c0-2.605,2.111-4.721,4.721-4.721
	s4.722,2.116,4.722,4.721v88.722C79.722,121.968,77.61,124.083,75,124.083"/>
<g>
	<path fill="#717271" d="M112.741,144.646c-0.356,0-0.712-0.01-1.072-0.033h-0.005c-9.39-0.554-18.227-2.904-26.25-6.986
		c-33.691-17.13-58.696-42.659-74.316-75.869c-2.82-6.005-4.604-12.707-5.608-21.111C4.747,34.44,6.603,29.17,11.009,24.969
		c4.918-4.688,10.181-9.943,16.099-16.082c1.142-1.188,3.822-3.962,7.567-3.476c3.752,0.481,5.676,3.914,6.308,5.039
		c4.404,7.87,9.17,15.957,14.563,24.736c3.271,5.327,2.505,10.423-2.168,14.356c-0.324,0.269-0.697,0.664-1.091,1.077
		c-0.243,0.25-0.488,0.51-0.733,0.755c-2.767,2.77-5.486,5.606-5.692,7.236c-0.188,1.515,1.399,4.452,3.839,8.399
		C59,82.039,71.05,93.712,85.529,101.698c2.278,1.255,5.058,2.673,6.25,2.476c1.188-0.197,3.395-2.207,5.596-4.36
		c3.515-3.428,5.635-5.5,8.832-5.972c3.212-0.471,5.813,0.909,10.125,3.202c1.817,0.962,3.611,1.918,5.404,2.875
		c5.712,3.034,11.62,6.183,17.462,9.178c1.322,0.688,4.841,2.491,5.398,6.227c0.549,3.707-2.188,6.351-3.086,7.216
		c-3.856,3.731-7.722,7.621-11.457,11.385c-2.048,2.063-4.102,4.135-6.164,6.184C120.899,143.088,117.063,144.646,112.741,144.646
		 M112.222,135.184c2.087,0.12,3.678-0.442,5.005-1.765c2.053-2.043,4.092-4.091,6.125-6.144c3.39-3.414,6.88-6.929,10.399-10.361
		c-5.529-2.846-11.077-5.803-16.452-8.668c-1.789-0.947-3.582-1.904-5.365-2.855c-1.755-0.924-3.534-1.871-4.352-2.135
		c-0.716,0.485-2.188,1.923-3.615,3.317c-8.154,7.956-12.159,9.37-22.995,3.394c-15.917-8.778-29.14-21.563-39.301-37.993
		c-7.733-12.51-7.226-16.842,3.204-27.274c0.197-0.197,0.39-0.399,0.582-0.606c0.526-0.548,1.123-1.173,1.841-1.774
		c0.639-0.539,0.789-0.846,0.808-0.89c-0.01,0-0.055-0.414-0.601-1.303c-5.238-8.515-9.89-16.404-14.202-24.068
		C27.536,22.031,22.367,27.185,17.523,31.8c-2.255,2.154-3.048,4.461-2.659,7.721c0.88,7.371,2.396,13.159,4.774,18.217
		c14.707,31.268,38.279,55.32,70.054,71.47C96.553,132.698,104.135,134.708,112.222,135.184"/>
	<g>
		<path fill="#717271" d="M135.429,80.866c-4.038,1.139-4.154-2.147-4.635-5.137C126.39,48.18,107.395,28.007,80.26,22.084
			c-1.771-0.39-3.599-0.577-5.406-0.774c-2.053-0.221-3.178-0.904-3.322-3.351c-0.356-6.217-0.197-6.52,5.88-5.755
			c32.748,4.125,59.983,32.346,63.008,64.991C140.818,81.496,138.366,80.784,135.429,80.866"/>
		<path fill="#717271" d="M113.895,80.692c-3.351,0.952-4.336-1.079-5.015-4.084c-4.086-18.173-15.322-29.27-33.493-33.356
			c-3.337-0.75-5.399-5.827-3.664-8.899c0.789-1.414,2.005-0.846,3.082-0.717c21.652,2.577,40.459,21.188,43.826,43.078
			C119.284,80.996,117.024,81.02,113.895,80.692"/>
		<path fill="#717271" d="M71.738,59.897c-0.509-3.966,0.371-5.116,3.746-4.053c10.421,3.289,17.459,9.875,20.637,20.399
			c0.472,1.553,1.972,3.844-0.894,4.301c-2.164,0.341-5.236,1.567-6.457-1.781c-2.73-7.52-7.89-12.563-15.334-15.212
			C70.839,62.623,71.906,60.637,71.738,59.897"/>
	</g>
</g>
<g display="none">
	<path display="inline" fill="#717271" d="M144.261,132.593H5.74c-2.606,0-4.721-2.115-4.721-4.722V22.125
		c0-2.601,2.115-4.717,4.721-4.717h138.521c2.605,0,4.721,2.116,4.721,4.717v105.746
		C148.981,130.478,146.866,132.593,144.261,132.593 M10.461,123.15h129.078V26.846H10.461V123.15z"/>
	<path display="inline" fill="#717271" d="M75.63,95.481c-1.25,0-2.452-0.495-3.341-1.385L3.797,25.601
		c-1.846-1.841-1.846-4.832,0-6.673c1.836-1.841,4.827-1.841,6.673,0l65.16,65.154l65.294-65.294c1.842-1.841,4.827-1.841,6.673,0
		c1.847,1.846,1.847,4.837,0,6.678l-68.63,68.63C78.082,94.986,76.88,95.481,75.63,95.481"/>
	<path display="inline" fill="#717271" d="M7.134,132.453c-1.207,0-2.414-0.467-3.336-1.385c-1.841-1.842-1.841-4.837,0-6.678
		l52.736-52.727c1.846-1.842,4.837-1.846,6.678,0c1.841,1.841,1.841,4.832,0,6.678l-52.736,52.727
		C9.552,131.986,8.34,132.453,7.134,132.453"/>
	<path display="inline" fill="#717271" d="M144.261,132.593c-1.207,0-2.419-0.462-3.337-1.38L88.053,78.342
		c-1.846-1.846-1.846-4.836,0-6.678c1.842-1.842,4.832-1.842,6.679,0l52.865,52.871c1.847,1.846,1.847,4.836,0,6.678
		C146.679,132.131,145.467,132.593,144.261,132.593"/>
</g>
</svg>
