<?xml version="1.0" encoding="utf-8"?>
<!-- Generator: Adobe Illustrator 16.0.0, SVG Export Plug-In . SVG Version: 6.00 Build 0)  -->
<!DOCTYPE svg PUBLIC "-//W3C//DTD SVG 1.1//EN" "http://www.w3.org/Graphics/SVG/1.1/DTD/svg11.dtd">
<svg version="1.1" id="Layer_1" xmlns="http://www.w3.org/2000/svg" xmlns:xlink="http://www.w3.org/1999/xlink" x="0px" y="0px"
	 width="320.579px" height="320.579px" viewBox="0 0 320.579 320.579" enable-background="new 0 0 320.579 320.579"
	 xml:space="preserve">
<g>
	<defs>
		<rect id="SVGID_1_" width="320.579" height="320.579"/>
	</defs>
	<clipPath id="SVGID_2_">
		<use xlink:href="#SVGID_1_"  overflow="visible"/>
	</clipPath>
	<path clip-path="url(#SVGID_2_)" fill="#525252" d="M160.289,320.579L160.289,320.579C71.764,320.579,0,248.815,0,160.29v-0.001
		C0,71.764,71.764,0,160.289,0s160.289,71.764,160.289,160.289v0.001C320.578,248.815,248.814,320.579,160.289,320.579"/>
</g>
<rect x="111.023" y="228.943" fill="#FFFFFF" width="98.533" height="18.1"/>
<rect x="118.905" y="119.901" fill="#FFFFFF" width="82.768" height="109.043"/>
<g>
	<defs>
		<rect id="SVGID_3_" width="320.579" height="320.579"/>
	</defs>
	<clipPath id="SVGID_4_">
		<use xlink:href="#SVGID_3_"  overflow="visible"/>
	</clipPath>
	<path clip-path="url(#SVGID_4_)" fill="#FFFFFF" d="M201.673,119.9c0,22.856-18.527,41.384-41.384,41.384
		c-22.856,0-41.384-18.528-41.384-41.384s18.528-41.384,41.384-41.384C183.146,78.517,201.673,97.044,201.673,119.9"/>
	<rect x="153.676" y="124.345" clip-path="url(#SVGID_4_)" fill="#525252" width="13.229" height="37.752"/>
	<rect x="128.759" y="218.841" clip-path="url(#SVGID_4_)" fill="#525252" width="63.062" height="10.104"/>
	<polygon clip-path="url(#SVGID_4_)" fill="#FFFFFF" points="184.424,83.98 136.155,83.98 136.155,73.536 160.289,73.536 
		184.424,73.536 	"/>
	<path clip-path="url(#SVGID_4_)" fill="#525252" d="M186.303,85.858h-52.026v-14.2h52.026V85.858z M138.034,82.102h44.513v-6.686
		h-44.513V82.102z"/>
	<path clip-path="url(#SVGID_4_)" fill="#525252" d="M175.32,119.9c0,8.301-6.73,15.031-15.031,15.031s-15.031-6.73-15.031-15.031
		c0-8.301,6.73-15.031,15.031-15.031S175.32,111.6,175.32,119.9"/>
	<path clip-path="url(#SVGID_4_)" fill="#FFFFFF" d="M186.401,119.9c0,14.421-11.691,26.112-26.112,26.112
		s-26.112-11.691-26.112-26.112s11.691-26.112,26.112-26.112S186.401,105.479,186.401,119.9"/>
	<path clip-path="url(#SVGID_4_)" fill="#525252" d="M160.288,147.891c-15.434,0-27.989-12.556-27.989-27.99
		c0-15.435,12.555-27.991,27.989-27.991c15.434,0,27.992,12.556,27.992,27.991C188.28,135.335,175.722,147.891,160.288,147.891
		 M160.288,95.667c-13.362,0-24.232,10.87-24.232,24.234c0,13.363,10.87,24.234,24.232,24.234c13.365,0,24.236-10.871,24.236-24.234
		C184.524,106.537,173.653,95.667,160.288,95.667"/>
	<path clip-path="url(#SVGID_4_)" fill="#525252" d="M193.526,228.944h-3.757v-71.966c0.041-4.575-1.03-17.129-6.416-20.448
		l-1.963-1.456l2.245-3.012l1.827,1.363c8.152,5.017,8.071,22.816,8.063,23.571V228.944z"/>
	<path clip-path="url(#SVGID_4_)" fill="#525252" d="M130.637,228.944h-3.757v-71.966c-0.007-0.737-0.088-18.536,8.2-23.647
		l1.922-1.315l2.121,3.104l-1.996,1.363c-5.459,3.366-6.53,15.92-6.49,20.477V228.944z"/>
	<path clip-path="url(#SVGID_4_)" fill="#525252" d="M172.555,119.9c0,6.774-5.491,12.265-12.265,12.265
		c-6.774,0-12.266-5.491-12.266-12.265s5.492-12.265,12.266-12.265C167.063,107.636,172.555,113.126,172.555,119.9"/>
</g>
</svg>
