<?xml version="1.0" encoding="utf-8"?>
<!-- Generator: Adobe Illustrator 16.0.0, SVG Export Plug-In . SVG Version: 6.00 Build 0)  -->
<!DOCTYPE svg PUBLIC "-//W3C//DTD SVG 1.1//EN" "http://www.w3.org/Graphics/SVG/1.1/DTD/svg11.dtd">
<svg version="1.1" id="Layer_1" xmlns="http://www.w3.org/2000/svg" xmlns:xlink="http://www.w3.org/1999/xlink" x="0px" y="0px"
	 width="320.579px" height="320.579px" viewBox="0 0 320.579 320.579" enable-background="new 0 0 320.579 320.579"
	 xml:space="preserve">
<g>
	<defs>
		<rect id="SVGID_1_" width="320.579" height="320.579"/>
	</defs>
	<clipPath id="SVGID_2_">
		<use xlink:href="#SVGID_1_"  overflow="visible"/>
	</clipPath>
	<path clip-path="url(#SVGID_2_)" fill="#525252" d="M160.289,320.579L160.289,320.579C71.764,320.579,0,248.815,0,160.29v-0.001
		C0,71.764,71.764,0,160.289,0s160.289,71.764,160.289,160.289v0.001C320.578,248.815,248.814,320.579,160.289,320.579"/>
</g>
<polygon fill="#FFFFFF" points="160.29,69.328 125.54,67.631 125.54,97.769 142.081,117.706 158.126,117.706 162.451,117.706 
	178.498,117.706 195.04,97.769 195.04,67.631 "/>
<path fill="#525252" d="M179.38,119.585h-38.181l-17.538-21.139V65.658l36.629,1.789l36.628-1.789v32.788L179.38,119.585z
	 M142.964,115.829h34.65l15.547-18.738V69.603l-32.871,1.605l-0.093-0.004l-32.78-1.601V97.09L142.964,115.829z"/>
<g>
	<defs>
		<rect id="SVGID_3_" width="320.579" height="320.579"/>
	</defs>
	<clipPath id="SVGID_4_">
		<use xlink:href="#SVGID_3_"  overflow="visible"/>
	</clipPath>
	<path clip-path="url(#SVGID_4_)" fill="#FFFFFF" d="M209.556,246.361h-98.533v-16.089c0-1.109,0.9-2.011,2.01-2.011h94.513
		c1.11,0,2.01,0.901,2.01,2.011V246.361z"/>
	<polygon clip-path="url(#SVGID_4_)" fill="#FFFFFF" points="201.673,228.263 118.905,228.263 118.905,134.246 201.673,141.76 	"/>
	<path clip-path="url(#SVGID_4_)" fill="#FFFFFF" d="M201.673,134.246c0,22.856-18.527,52.654-41.384,52.654
		c-22.856,0-41.384-29.798-41.384-52.654s18.528-26.357,41.384-26.357C183.146,107.889,201.673,111.39,201.673,134.246"/>
	<rect x="153.676" y="159.185" clip-path="url(#SVGID_4_)" fill="#525252" width="13.229" height="18.877"/>
	<rect x="128.759" y="218.159" clip-path="url(#SVGID_4_)" fill="#525252" width="63.062" height="10.103"/>
	<polygon clip-path="url(#SVGID_4_)" fill="#FFFFFF" points="195.04,74.056 125.54,74.056 125.54,61.204 160.29,61.204 
		195.04,61.204 	"/>
	<path clip-path="url(#SVGID_4_)" fill="#525252" d="M196.918,75.935h-73.257V59.327h73.257V75.935z M127.418,72.178h65.744v-9.095
		h-65.744V72.178z"/>
	<path clip-path="url(#SVGID_4_)" fill="#525252" d="M193.526,228.262h-3.757v-45.667c0.042-4.573-1.031-17.129-6.413-20.446
		l-1.462-1.084h-43.25l-1.521,1.036c-5.466,3.373-6.53,15.922-6.486,20.477v45.685h-3.757v-45.667
		c-0.008-0.736-0.086-18.535,8.198-23.646l2.406-1.642h45.654l2.325,1.735c8.15,5.018,8.069,22.816,8.063,23.572V228.262z"/>
	<line clip-path="url(#SVGID_4_)" fill="#FFFFFF" x1="129.435" y1="108.929" x2="192.666" y2="108.929"/>
	<rect x="129.435" y="107.051" clip-path="url(#SVGID_4_)" fill="#525252" width="63.231" height="3.757"/>
	<rect x="197.857" y="126.968" clip-path="url(#SVGID_4_)" fill="#FFFFFF" width="14.792" height="18.549"/>
	<path clip-path="url(#SVGID_4_)" fill="#525252" d="M214.528,147.394h-18.55v-22.306h18.55V147.394z M199.736,143.637h11.036
		v-14.792h-11.036V143.637z"/>
	<rect x="130.55" y="127.887" clip-path="url(#SVGID_4_)" fill="#FFFFFF" width="59.324" height="31.298"/>
	<path clip-path="url(#SVGID_4_)" fill="#525252" d="M191.752,161.064h-63.08v-35.055h63.08V161.064z M132.429,157.307h55.567
		v-27.541h-55.567V157.307z"/>
	<path clip-path="url(#SVGID_4_)" fill="#525252" d="M154.975,143.537c0,4.307-3.491,7.798-7.798,7.798s-7.798-3.491-7.798-7.798
		s3.491-7.798,7.798-7.798S154.975,139.229,154.975,143.537"/>
	<path clip-path="url(#SVGID_4_)" fill="#525252" d="M181.199,143.537c0,4.307-3.49,7.798-7.798,7.798
		c-4.307,0-7.798-3.491-7.798-7.798s3.491-7.798,7.798-7.798C177.709,135.739,181.199,139.229,181.199,143.537"/>
	<polygon clip-path="url(#SVGID_4_)" fill="#525252" points="183.078,207.249 137.5,207.249 137.5,193.725 147.178,193.725 
		147.178,197.481 141.258,197.481 141.258,203.492 179.32,203.492 179.32,197.481 173.401,197.481 173.401,193.725 183.078,193.725 
			"/>
</g>
</svg>
