<?xml version="1.0" encoding="utf-8"?>
<!-- Generator: Adobe Illustrator 16.0.0, SVG Export Plug-In . SVG Version: 6.00 Build 0)  -->
<!DOCTYPE svg PUBLIC "-//W3C//DTD SVG 1.1//EN" "http://www.w3.org/Graphics/SVG/1.1/DTD/svg11.dtd">
<svg version="1.1" id="Layer_1" xmlns="http://www.w3.org/2000/svg" xmlns:xlink="http://www.w3.org/1999/xlink" x="0px" y="0px"
	 width="320.579px" height="320.579px" viewBox="0 0 320.579 320.579" enable-background="new 0 0 320.579 320.579"
	 xml:space="preserve">
<rect fill="#FFFFFF" width="320.579" height="320.579"/>
<g>
	<defs>
		<rect id="SVGID_1_" width="320.579" height="320.579"/>
	</defs>
	<clipPath id="SVGID_2_">
		<use xlink:href="#SVGID_1_"  overflow="visible"/>
	</clipPath>
	
		<rect x="-499.604" y="-1254.308" clip-path="url(#SVGID_2_)" fill="none" stroke="#231F20" stroke-miterlimit="10" width="2073.905" height="1692.766"/>
</g>
<g>
	<defs>
		<rect id="SVGID_3_" width="320.579" height="320.579"/>
	</defs>
	<clipPath id="SVGID_4_">
		<use xlink:href="#SVGID_3_"  overflow="visible"/>
	</clipPath>
	<path clip-path="url(#SVGID_4_)" fill="#525252" d="M160.289,320.579L160.289,320.579C71.764,320.579,0,248.815,0,160.29v-0.001
		C0,71.764,71.764,0,160.289,0s160.289,71.764,160.289,160.289v0.001C320.578,248.815,248.814,320.579,160.289,320.579"/>
</g>
<g>
	<defs>
		<rect id="SVGID_5_" width="320.579" height="320.579"/>
	</defs>
	<clipPath id="SVGID_6_">
		<use xlink:href="#SVGID_5_"  overflow="visible"/>
	</clipPath>
	<path clip-path="url(#SVGID_6_)" fill="#FFFFFF" d="M67.832,113.147l56.414-26.118c2.946-1.363,6.312,0.788,6.312,4.034v122.184
		c0,1.707-0.978,3.265-2.516,4.005l-56.414,16.162c-2.951,1.421-6.373-0.729-6.373-4.005V117.182
		C65.255,115.45,66.26,113.875,67.832,113.147"/>
	<path clip-path="url(#SVGID_6_)" fill="none" stroke="#525252" stroke-width="2.835" stroke-miterlimit="10" d="M67.832,113.147
		l56.414-26.118c2.946-1.363,6.312,0.788,6.312,4.034v122.184c0,1.707-0.978,3.265-2.516,4.005l-56.414,16.162
		c-2.951,1.421-6.373-0.729-6.373-4.005V117.182C65.255,115.45,66.26,113.875,67.832,113.147z"/>
	<path clip-path="url(#SVGID_6_)" fill="#FFFFFF" d="M193.284,102.147L136.87,87.03c-2.946-1.364-6.312,0.787-6.312,4.033v122.184
		c0,1.707,0.978,3.265,2.516,4.004l56.414,16.163c2.951,1.421,6.373-0.729,6.373-4.005V106.182
		C195.861,104.449,194.856,102.875,193.284,102.147"/>
	<path clip-path="url(#SVGID_6_)" fill="none" stroke="#525252" stroke-width="2.835" stroke-miterlimit="10" d="M193.284,102.147
		L136.87,87.03c-2.946-1.364-6.312,0.787-6.312,4.033v122.184c0,1.707,0.978,3.265,2.516,4.004l56.414,16.163
		c2.951,1.421,6.373-0.729,6.373-4.005V106.182C195.861,104.449,194.856,102.875,193.284,102.147z"/>
	<path clip-path="url(#SVGID_6_)" fill="#FFFFFF" d="M198.439,102.147l56.414-15.117c2.945-1.364,6.312,0.787,6.312,4.033v111.184
		c0,1.707-0.978,3.265-2.516,4.004l-56.414,27.163c-2.951,1.421-6.373-0.729-6.373-4.005V106.182
		C195.862,104.449,196.867,102.875,198.439,102.147"/>
	<path clip-path="url(#SVGID_6_)" fill="none" stroke="#525252" stroke-width="2.835" stroke-miterlimit="10" d="M198.439,102.147
		l56.414-15.117c2.945-1.364,6.312,0.787,6.312,4.033v111.184c0,1.707-0.978,3.265-2.516,4.004l-56.414,27.163
		c-2.951,1.421-6.373-0.729-6.373-4.005V106.182C195.862,104.449,196.867,102.875,198.439,102.147z"/>
	<path clip-path="url(#SVGID_6_)" fill="#525252" d="M210.61,158.095c0,27.953-22.66,50.613-50.613,50.613
		c-27.953,0-50.613-22.66-50.613-50.613c0-27.953,22.66-50.613,50.613-50.613C187.95,107.482,210.61,130.142,210.61,158.095"/>
	
		<circle clip-path="url(#SVGID_6_)" fill="none" stroke="#FFFFFF" stroke-width="2.835" stroke-miterlimit="10" cx="159.997" cy="158.095" r="50.613"/>
	<path clip-path="url(#SVGID_6_)" fill="#525252" d="M188.517,158.095c0,27.953-12.769,50.613-28.52,50.613
		c-15.75,0-28.519-22.66-28.519-50.613c0-27.953,12.769-50.613,28.519-50.613C175.748,107.482,188.517,130.142,188.517,158.095"/>
	
		<ellipse clip-path="url(#SVGID_6_)" fill="none" stroke="#FFFFFF" stroke-width="2.835" stroke-miterlimit="10" cx="159.997" cy="158.095" rx="28.519" ry="50.613"/>
	
		<line clip-path="url(#SVGID_6_)" fill="none" stroke="#FFFFFF" stroke-width="2.835" stroke-miterlimit="10" x1="159.997" y1="107.482" x2="159.997" y2="208.708"/>
	<path clip-path="url(#SVGID_6_)" fill="none" stroke="#FFFFFF" stroke-width="2.835" stroke-miterlimit="10" d="M117.112,128.799
		c0,0,42.882,33.22,85.807,0"/>
	<path clip-path="url(#SVGID_6_)" fill="none" stroke="#FFFFFF" stroke-width="2.835" stroke-miterlimit="10" d="M202.919,187.71
		c0,0-42.882-33.22-85.807,0"/>
	<path clip-path="url(#SVGID_6_)" fill="#FFFFFF" d="M217.415,136.563c0,7.935-14.368,23.348-14.368,23.348
		s-14.368-15.413-14.368-23.348s6.432-14.368,14.368-14.368C210.981,122.194,217.415,128.627,217.415,136.563"/>
	<path clip-path="url(#SVGID_6_)" fill="none" stroke="#525252" stroke-width="2.835" stroke-miterlimit="10" d="M217.415,136.563
		c0,7.935-14.368,23.348-14.368,23.348s-14.368-15.413-14.368-23.348s6.432-14.368,14.368-14.368
		C210.981,122.194,217.415,128.627,217.415,136.563z"/>
	<path clip-path="url(#SVGID_6_)" fill="#525252" d="M210.61,135.964c0,4.177-3.386,7.564-7.564,7.564
		c-4.177,0-7.563-3.387-7.563-7.564c0-4.177,3.386-7.564,7.563-7.564C207.225,128.4,210.61,131.787,210.61,135.964"/>
	
		<circle clip-path="url(#SVGID_6_)" fill="none" stroke="#FFFFFF" stroke-width="2.835" stroke-miterlimit="10" cx="203.047" cy="135.964" r="7.563"/>
	<path clip-path="url(#SVGID_6_)" fill="#FFFFFF" d="M158.001,166.805c0,7.936-14.368,23.349-14.368,23.349
		s-14.368-15.413-14.368-23.349c0-7.935,6.432-14.368,14.368-14.368C151.568,152.437,158.001,158.87,158.001,166.805"/>
	<path clip-path="url(#SVGID_6_)" fill="none" stroke="#525252" stroke-width="2.835" stroke-miterlimit="10" d="M158.001,166.805
		c0,7.936-14.368,23.349-14.368,23.349s-14.368-15.413-14.368-23.349c0-7.935,6.432-14.368,14.368-14.368
		C151.568,152.437,158.001,158.87,158.001,166.805z"/>
	<path clip-path="url(#SVGID_6_)" fill="#525252" d="M151.197,166.206c0,4.178-3.386,7.564-7.564,7.564
		c-4.177,0-7.563-3.387-7.563-7.564c0-4.177,3.386-7.563,7.563-7.563C147.811,158.643,151.197,162.029,151.197,166.206"/>
	
		<circle clip-path="url(#SVGID_6_)" fill="none" stroke="#FFFFFF" stroke-width="2.835" stroke-miterlimit="10" cx="143.633" cy="166.206" r="7.563"/>
	<path clip-path="url(#SVGID_6_)" fill="#FFFFFF" d="M135.323,119.904c0,7.935-14.368,23.348-14.368,23.348
		s-14.368-15.413-14.368-23.348c0-7.935,6.432-14.368,14.368-14.368C128.89,105.536,135.323,111.969,135.323,119.904"/>
	<path clip-path="url(#SVGID_6_)" fill="none" stroke="#525252" stroke-width="2.835" stroke-miterlimit="10" d="M135.323,119.904
		c0,7.935-14.368,23.348-14.368,23.348s-14.368-15.413-14.368-23.348c0-7.935,6.432-14.368,14.368-14.368
		C128.89,105.536,135.323,111.969,135.323,119.904z"/>
	<path clip-path="url(#SVGID_6_)" fill="#525252" d="M128.519,119.305c0,4.177-3.386,7.564-7.564,7.564
		c-4.177,0-7.563-3.387-7.563-7.564c0-4.177,3.386-7.564,7.563-7.564C125.132,111.741,128.519,115.128,128.519,119.305"/>
	
		<circle clip-path="url(#SVGID_6_)" fill="none" stroke="#FFFFFF" stroke-width="2.835" stroke-miterlimit="10" cx="120.955" cy="119.305" r="7.563"/>
</g>
</svg>
