<?xml version="1.0" encoding="utf-8"?>
<!-- Generator: Adobe Illustrator 16.0.0, SVG Export Plug-In . SVG Version: 6.00 Build 0)  -->
<!DOCTYPE svg PUBLIC "-//W3C//DTD SVG 1.1//EN" "http://www.w3.org/Graphics/SVG/1.1/DTD/svg11.dtd">
<svg version="1.1" id="Layer_1" xmlns="http://www.w3.org/2000/svg" xmlns:xlink="http://www.w3.org/1999/xlink" x="0px" y="0px"
	 width="640px" height="127px" viewBox="0 0 640 127" enable-background="new 0 0 640 127" xml:space="preserve">
<g>
	<rect y="15.066" fill="#383838" width="17.771" height="97.023"/>
	<polygon fill="#383838" points="121.482,15.09 121.482,112.089 105.555,112.089 51.887,43.295 51.887,112.089 34.14,112.089 
		34.14,15.09 52.401,15.09 104.204,81.503 104.204,15.09 	"/>
	<path fill="#383838" d="M223.759,43.725c-2.238-5.301-5.541-9.979-9.657-13.917c-15.364-14.442-38.376-14.73-42.229-14.73h-31.459
		v97.035h31.974c4.679,0,26.936-0.813,41.834-15.031c4.117-3.924,7.299-8.591,9.538-13.903c2.477-5.732,3.721-12.397,3.721-19.505
		C227.48,56.266,226.236,49.602,223.759,43.725 M207.951,76.441c-1.281,3.027-3.207,5.804-5.637,8.196
		c-10.733,10.242-28.922,10.005-29.437,10.005H158.96V31.521h13.917c0.144,0,4.631-0.145,10.638,0.98
		c5.517,1.053,13.067,3.459,18.656,8.748c2.417,2.274,4.356,5.169,5.636,8.329c1.663,3.674,2.441,9.143,2.441,14.097
		C210.249,68.472,209.471,72.768,207.951,76.441"/>
	<path fill="#383838" d="M492.809,82.987l11.585,11.416c-3.544,4.307-7.899,7.993-12.782,10.816
		c-7.61,4.429-16.249,6.894-25.057,6.894c-6.726,0-13.091-1.389-19.17-3.926c-5.983-2.441-11.248-5.887-15.7-10.482
		c-4.547-4.428-8.111-9.691-10.528-15.58c-2.587-6.055-3.903-12.35-3.903-18.966c0-6.737,1.316-13.021,3.903-19.1
		c2.417-5.874,5.981-11.139,10.528-15.556c4.452-4.583,9.717-8.089,15.7-10.494c3.112-1.268,6.271-2.273,9.574-2.932
		c3.086-0.623,6.316-0.957,9.596-0.957c1.962,0,3.949,0.143,5.912,0.395c5.647,0.635,11.151,2.249,16.25,4.823
		c6.63,3.362,11.033,6.545,15.677,12.42l-11.585,11.38c-3.015-3.9-6.916-7.107-11.343-9.417c-4.787-2.274-9.766-3.482-14.911-3.482
		c-8.927,0-17.16,3.339-23.333,9.681c-6.369,6.15-9.766,14.359-9.766,23.239c0,8.747,3.396,16.955,9.766,23.13
		c6.173,6.319,14.406,9.645,23.333,9.645c5.84,0,11.752-1.603,16.777-4.522C487.041,89.186,490.272,86.338,492.809,82.987"/>
	<path fill="#383838" d="M606.297,44.156c-2.439-5.887-6.125-11.129-10.672-15.544c-4.598-4.583-9.908-8.053-15.796-10.458
		c-6.152-2.548-12.685-3.877-19.388-3.877c-6.652,0-13.233,1.329-19.358,3.877c-5.864,2.406-11.228,5.875-15.869,10.458
		c-4.475,4.416-8.042,9.657-10.627,15.544c-2.584,6.079-3.829,12.349-3.829,18.941c0,6.714,1.245,13.01,3.829,19.052
		c2.585,5.888,6.152,11.152,10.627,15.556c4.642,4.596,10.005,8.041,15.869,10.482c6.125,2.537,12.706,3.926,19.358,3.926
		c6.703,0,13.235-1.389,19.388-3.926c5.888-2.441,11.198-5.887,15.796-10.482c4.547-4.403,8.232-9.668,10.672-15.556
		c2.633-6.042,3.998-12.338,3.998-19.052C610.295,56.505,608.93,50.235,606.297,44.156 M584.04,86.313
		c-6.246,6.318-14.719,9.669-23.599,9.669c-8.901,0-17.326-3.351-23.62-9.669c-6.246-6.175-9.692-14.349-9.692-23.216
		c0-8.722,3.446-16.883,9.692-23.082c6.294-6.33,14.719-9.657,23.62-9.657c8.88,0,17.353,3.327,23.599,9.657
		c6.318,6.199,9.837,14.36,9.837,23.082C593.877,71.965,590.358,80.139,584.04,86.313"/>
	<path fill="#383838" d="M379.367,15.09H360.03l-34.978,81.035l-6.916,15.964h18.546l9.047-20.438h48.547l8.879,20.438h18.19
		L379.367,15.09z M352.134,77.027l17.853-41.128l17.926,41.128H352.134z"/>
	<path fill="#383838" d="M321.619,98.71l-18.847-28.203c4.093-0.946,9.238-3.04,13.474-7.133c2.477-2.441,4.44-5.169,5.684-8.448
		c1.376-3.41,2.215-7.359,2.215-11.739c0-11.201-5.421-20.068-15.03-24.698c-6.761-3.267-13.258-3.411-14.084-3.411h-57.354v97.035
		h17.95V30.071h39.249c0.276,0,4.021,0.145,7.599,1.915c4.392,2.178,6.521,5.756,6.521,11.201c0,4.26-1.148,7.252-3.351,9.431
		c-3.709,3.529-9.932,3.661-10.494,3.661h-23.526l39.142,55.835h19.816L321.619,98.71z"/>
	<path fill="#FD4F00" d="M633.533,33.231c-6.846,6.809-16.178,8.533-20.869,3.817c-4.715-4.703-2.991-14.036,3.83-20.845
		c6.797-6.821,16.13-8.532,20.845-3.83C642.055,17.076,640.329,26.421,633.533,33.231"/>
	<path fill="#FD4F00" d="M625.203,59.269c-5.12-1.865-8.279-6.27-6.963-9.823c1.291-3.555,6.51-4.93,11.656-3.04
		c5.168,1.855,8.279,6.271,6.986,9.825C635.592,59.784,630.375,61.137,625.203,59.269"/>
	<path fill="#FD4F00" d="M610.031,9.944c0,5.493-3.063,9.956-6.893,9.956c-3.782,0-6.845-4.462-6.845-9.956
		c0-5.48,3.063-9.944,6.845-9.944C606.968,0,610.031,4.464,610.031,9.944"/>
</g>
</svg>
