<?xml version="1.0" encoding="utf-8"?>
<!-- Generator: Adobe Illustrator 16.0.0, SVG Export Plug-In . SVG Version: 6.00 Build 0)  -->
<!DOCTYPE svg PUBLIC "-//W3C//DTD SVG 1.1//EN" "http://www.w3.org/Graphics/SVG/1.1/DTD/svg11.dtd">
<svg version="1.1" id="Layer_1" xmlns="http://www.w3.org/2000/svg" xmlns:xlink="http://www.w3.org/1999/xlink" x="0px" y="0px"
	 width="320.579px" height="320.579px" viewBox="0 0 320.579 320.579" enable-background="new 0 0 320.579 320.579"
	 xml:space="preserve">
<g>
	<defs>
		<rect id="SVGID_1_" width="320.579" height="320.579"/>
	</defs>
	<clipPath id="SVGID_2_">
		<use xlink:href="#SVGID_1_"  overflow="visible"/>
	</clipPath>
	<path clip-path="url(#SVGID_2_)" fill="#525252" d="M160.289,320.579L160.289,320.579C71.764,320.579,0,248.815,0,160.29v-0.001
		C0,71.764,71.764,0,160.289,0s160.289,71.764,160.289,160.289v0.001C320.578,248.815,248.814,320.579,160.289,320.579"/>
</g>
<g>
	<defs>
		<rect id="SVGID_3_" width="320.579" height="320.579"/>
	</defs>
	<clipPath id="SVGID_4_">
		<use xlink:href="#SVGID_3_"  overflow="visible"/>
	</clipPath>
	<path clip-path="url(#SVGID_4_)" fill="#FFFFFF" d="M219.9,225.04H100.678c-6.499,0-11.767,5.269-11.767,11.768v10.258h142.758
		v-10.258C231.669,230.309,226.399,225.04,219.9,225.04"/>
	<rect x="98.928" y="125.853" clip-path="url(#SVGID_4_)" fill="#FFFFFF" width="122.722" height="100.181"/>
	<path clip-path="url(#SVGID_4_)" fill="#FFFFFF" d="M101.052,77.964h118.474c1.173,0,2.124,0.951,2.124,2.124v49.825H98.928V80.088
		C98.928,78.916,99.879,77.964,101.052,77.964"/>
	<rect x="221.65" y="92.043" clip-path="url(#SVGID_4_)" fill="#FFFFFF" width="13.774" height="25.671"/>
	<path clip-path="url(#SVGID_4_)" fill="#525252" d="M237.303,119.592H219.77V90.163h17.533V119.592z M223.527,115.836h10.019
		V93.921h-10.019V115.836z"/>
	<rect x="115.208" y="104.878" clip-path="url(#SVGID_4_)" fill="#525252" width="93.92" height="25.035"/>
	<path clip-path="url(#SVGID_4_)" fill="#525252" d="M223.527,227.914H97.051v-99.878h126.477V227.914z M100.808,224.157H219.77
		v-92.364H100.808V224.157z"/>
	<rect x="98.93" y="224.157" clip-path="url(#SVGID_4_)" fill="#525252" width="122.719" height="3.757"/>
	<rect x="135.244" y="131.095" clip-path="url(#SVGID_4_)" fill="#FFFFFF" width="53.847" height="18.253"/>
	<path clip-path="url(#SVGID_4_)" fill="#525252" d="M190.971,151.226h-57.605v-22.009h57.605V151.226z M137.121,147.469h50.093
		v-14.495h-50.093V147.469z"/>
	<rect x="148.393" y="149.348" clip-path="url(#SVGID_4_)" fill="#FFFFFF" width="27.55" height="15.017"/>
	<path clip-path="url(#SVGID_4_)" fill="#525252" d="M177.822,166.244h-31.309v-18.775h31.309V166.244z M150.27,162.487h23.795
		v-11.261H150.27V162.487z"/>
	<rect x="153.402" y="166.888" clip-path="url(#SVGID_4_)" fill="#FFFFFF" width="17.532" height="3.76"/>
	<path clip-path="url(#SVGID_4_)" fill="#525252" d="M172.811,172.525h-21.286v-7.516h21.286V172.525z M155.281,168.769
		l13.772-0.002L155.281,168.769z"/>
	<path clip-path="url(#SVGID_4_)" fill="#525252" d="M148.393,156.857h-13.835c-4.065,0-7.662,2.895-8.89,7.156l-10.46,36.279h5.635
		l10.692-33.794c0.653-2.063,2.31-3.544,4.281-3.825l12.577-0.589V156.857z"/>
	<path clip-path="url(#SVGID_4_)" fill="#FFFFFF" d="M243.976,165.657l-66.142-3.908c-1.06-0.059-1.892-1.021-1.892-2.188v-5.409
		c0-1.167,0.832-2.129,1.892-2.188l66.142-3.908c1.139-0.064,5.851,0.934,5.851,2.188v13.226
		C249.826,164.724,245.114,165.722,243.976,165.657"/>
	<path clip-path="url(#SVGID_4_)" fill="#525252" d="M244.028,167.537c-0.06,0-0.11-0.002-0.158-0.006h-0.003l-66.144-3.907
		c-2.048-0.112-3.658-1.897-3.658-4.063v-5.409c0-2.161,1.606-3.946,3.662-4.064l66.14-3.907c1.104-0.084,5.316,0.6,6.959,2.154
		c0.723,0.686,0.877,1.416,0.877,1.909v13.224c0,0.493-0.154,1.224-0.877,1.909C249.252,166.864,245.323,167.537,244.028,167.537
		 M244.083,163.782c0.814,0.05,2.939-0.497,3.863-0.952v-11.947c-0.924-0.455-3.049-0.978-3.867-0.952l-66.136,3.907l-0.121,5.723
		L244.083,163.782z"/>
	<path clip-path="url(#SVGID_4_)" fill="#525252" d="M175.856,184.714c0.852,0.347,1.858-0.285,1.733-1.196
		c-1.294-9.455-11.753-10.908-14.956-11.133v-0.046c0,0-0.193,0.003-0.477,0.016c-0.283-0.013-0.479-0.016-0.479-0.016v0.046
		c-3.181,0.223-13.521,1.658-14.929,10.943c-0.149,0.987,0.796,1.756,1.721,1.379c6.845-2.785,11.366-2.87,13.208-2.738v0.109
		c0,0,0.195-0.029,0.479-0.063c0.283,0.034,0.477,0.063,0.477,0.063v-0.109C164.478,181.837,169.003,181.922,175.856,184.714"/>
	<rect x="154.419" y="169.742" clip-path="url(#SVGID_4_)" fill="#525252" width="14.792" height="5.225"/>
</g>
</svg>
