<?xml version="1.0" encoding="utf-8"?>
<!-- Generator: Adobe Illustrator 16.0.0, SVG Export Plug-In . SVG Version: 6.00 Build 0)  -->
<!DOCTYPE svg PUBLIC "-//W3C//DTD SVG 1.1//EN" "http://www.w3.org/Graphics/SVG/1.1/DTD/svg11.dtd">
<svg version="1.1" id="Layer_1" xmlns="http://www.w3.org/2000/svg" xmlns:xlink="http://www.w3.org/1999/xlink" x="0px" y="0px"
	 width="320.579px" height="320.579px" viewBox="0 0 320.579 320.579" enable-background="new 0 0 320.579 320.579"
	 xml:space="preserve">
<g>
	<defs>
		<rect id="SVGID_1_" width="320.579" height="320.579"/>
	</defs>
	<clipPath id="SVGID_2_">
		<use xlink:href="#SVGID_1_"  overflow="visible"/>
	</clipPath>
	<path clip-path="url(#SVGID_2_)" fill="#525252" d="M160.289,320.579L160.289,320.579C71.764,320.579,0,248.815,0,160.29v-0.001
		C0,71.764,71.764,0,160.289,0s160.289,71.764,160.289,160.289v0.001C320.578,248.815,248.814,320.579,160.289,320.579"/>
</g>
<g>
	<defs>
		<rect id="SVGID_3_" width="320.579" height="320.579"/>
	</defs>
	<clipPath id="SVGID_4_">
		<use xlink:href="#SVGID_3_"  overflow="visible"/>
	</clipPath>
	<path clip-path="url(#SVGID_4_)" fill="#FFFFFF" d="M214.07,246.361h-98.533v-16.089c0-1.109,0.9-2.011,2.01-2.011h94.513
		c1.11,0,2.011,0.901,2.011,2.011V246.361z"/>
	<path clip-path="url(#SVGID_4_)" fill="#FFFFFF" d="M203.949,97.763c-0.272-5.596-30.057-19.026-38.327-21.936v-0.572
		c0,0-0.307,0.106-0.818,0.285c-0.513-0.179-0.818-0.285-0.818-0.285v0.572c-8.271,2.91-38.056,16.34-38.328,21.936
		c-0.306,6.294,0,8.799,0,8.799h38.328h1.637h38.327C203.949,106.562,204.255,104.057,203.949,97.763"/>
	<path clip-path="url(#SVGID_4_)" fill="#FFFFFF" d="M203.949,106.562h-38.327h-1.637h-38.328
		c7.189-15.745-23.352,73.087-17.253,107.033c1.446,8.044,8.426,21.332,16.428,21.332h38.845h2.251h38.845
		c8.003,0,14.982-13.288,16.429-21.332C227.301,179.649,196.76,90.817,203.949,106.562"/>
	<rect x="121.9" y="104.682" clip-path="url(#SVGID_4_)" fill="#525252" width="85.806" height="3.757"/>
	<path clip-path="url(#SVGID_4_)" fill="#FFFFFF" d="M183.143,107.695h55.49c0,0,16.956,11.021,7.418,83.027
		c-1.893,14.29-15.102,11.687-12.717,0c3.606-17.674,0.883-69.802-5.829-65.393h-32.608L183.143,107.695z"/>
	<path clip-path="url(#SVGID_4_)" fill="#525252" d="M238.579,202.364c-1.591,0-3.137-0.557-4.408-1.631
		c-2.599-2.197-3.575-5.983-2.677-10.388c3.576-17.525,0.69-59.057-3.268-63.272l-0.112,0.064l-0.609,0.07H193.89l-14.257-21.391
		h59.558l0.466,0.303c0.732,0.477,17.841,12.499,8.256,84.848c-0.734,5.555-3.208,9.531-6.783,10.913
		C240.29,202.205,239.428,202.364,238.579,202.364 M228.299,123.183c0.618,0,1.233,0.193,1.801,0.578
		c6.97,4.721,8.062,52.701,5.074,67.338c-0.604,2.971-0.075,5.501,1.422,6.767c0.897,0.757,2.061,0.942,3.178,0.511
		c2.223-0.857,3.874-3.813,4.415-7.899c8.366-63.161-3.937-78.616-6.249-80.903h-51.287l9.248,13.877h31.142
		C227.453,123.272,227.877,123.183,228.299,123.183"/>
	<polygon clip-path="url(#SVGID_4_)" fill="#FFFFFF" points="102.686,115.208 123.973,115.208 117.086,156.885 	"/>
	<rect x="115.52" y="228.113" clip-path="url(#SVGID_4_)" fill="#525252" width="100.494" height="3.757"/>
</g>
</svg>
