<?xml version="1.0" encoding="utf-8"?>
<!-- Generator: Adobe Illustrator 16.0.0, SVG Export Plug-In . SVG Version: 6.00 Build 0)  -->
<!DOCTYPE svg PUBLIC "-//W3C//DTD SVG 1.1//EN" "http://www.w3.org/Graphics/SVG/1.1/DTD/svg11.dtd">
<svg version="1.1" id="Layer_1" xmlns="http://www.w3.org/2000/svg" xmlns:xlink="http://www.w3.org/1999/xlink" x="0px" y="0px"
	 width="320.579px" height="320.579px" viewBox="0 0 320.579 320.579" enable-background="new 0 0 320.579 320.579"
	 xml:space="preserve">
<g>
	<defs>
		<rect id="SVGID_1_" width="320.579" height="320.579"/>
	</defs>
	<clipPath id="SVGID_2_">
		<use xlink:href="#SVGID_1_"  overflow="visible"/>
	</clipPath>
	<path clip-path="url(#SVGID_2_)" fill="#525252" d="M160.289,320.579L160.289,320.579C71.764,320.579,0,248.815,0,160.29v-0.001
		C0,71.764,71.764,0,160.289,0s160.289,71.764,160.289,160.289v0.001C320.578,248.815,248.814,320.579,160.289,320.579"/>
</g>
<g>
	<defs>
		<rect id="SVGID_3_" width="320.579" height="320.579"/>
	</defs>
	<clipPath id="SVGID_4_">
		<use xlink:href="#SVGID_3_"  overflow="visible"/>
	</clipPath>
	<path clip-path="url(#SVGID_4_)" fill="#FFFFFF" d="M206.09,115.876h-43.377h-4.847h-43.377c0,0-14.003-3.798-14.003,47.727
		c0,39.478,17.194,73.654,30.462,84.972h26.918h4.847h26.917c13.269-11.317,30.462-45.494,30.462-84.972
		C220.092,112.078,206.09,115.876,206.09,115.876"/>
	<path clip-path="url(#SVGID_4_)" fill="#FFFFFF" d="M205.984,128.67h-91.391c0,0-6.772,102.372,45.696,102.372
		C212.757,231.042,205.984,128.67,205.984,128.67"/>
	<path clip-path="url(#SVGID_4_)" fill="#525252" d="M160.288,232.921c-10.452,0-19.404-3.902-26.609-11.6
		c-25.021-26.729-21.135-90.09-20.959-92.775l0.117-1.754h94.906l0.117,1.754c0.177,2.685,4.062,66.043-20.96,92.773
		C179.695,229.019,170.74,232.921,160.288,232.921 M116.381,130.549c-0.444,10.487-1.629,65.061,20.042,88.207
		c6.465,6.907,14.495,10.409,23.865,10.409c9.369,0,17.4-3.502,23.868-10.411c21.672-23.146,20.486-77.718,20.042-88.205H116.381z"
		/>
</g>
</svg>
