<?xml version="1.0" encoding="utf-8"?>
<!-- Generator: Adobe Illustrator 16.0.0, SVG Export Plug-In . SVG Version: 6.00 Build 0)  -->
<!DOCTYPE svg PUBLIC "-//W3C//DTD SVG 1.1//EN" "http://www.w3.org/Graphics/SVG/1.1/DTD/svg11.dtd">
<svg version="1.1" id="Layer_1" xmlns="http://www.w3.org/2000/svg" xmlns:xlink="http://www.w3.org/1999/xlink" x="0px" y="0px"
	 width="320.579px" height="320.579px" viewBox="0 0 320.579 320.579" enable-background="new 0 0 320.579 320.579"
	 xml:space="preserve">
<g>
	<defs>
		<rect id="SVGID_1_" width="320.579" height="320.579"/>
	</defs>
	<clipPath id="SVGID_2_">
		<use xlink:href="#SVGID_1_"  overflow="visible"/>
	</clipPath>
	<path clip-path="url(#SVGID_2_)" fill="#525252" d="M160.289,320.579L160.289,320.579C71.764,320.579,0,248.815,0,160.29v-0.001
		C0,71.764,71.764,0,160.289,0s160.289,71.764,160.289,160.289v0.001C320.578,248.815,248.814,320.579,160.289,320.579"/>
</g>
<rect x="67.622" y="85.675" fill="#FFFFFF" width="81.751" height="97.388"/>
<polygon fill="#FFFFFF" points="67.622,183.063 108.497,222.346 149.373,183.063 "/>
<polygon fill="#FFFFFF" points="142.794,77.293 108.497,77.293 106.405,77.293 75.099,77.293 67.622,85.676 106.405,85.676 
	108.497,85.676 150.271,85.676 "/>
<path fill="#FFFFFF" d="M76.434,193.632h64.126H76.434z"/>
<rect x="76.434" y="191.752" fill="#525252" width="64.126" height="3.757"/>
<rect x="74.556" y="189.875" fill="#FFFFFF" width="3.757" height="53.411"/>
<rect x="138.682" y="189.875" fill="#FFFFFF" width="3.757" height="53.411"/>
<rect x="76.434" y="234.678" fill="#FFFFFF" width="64.126" height="3.758"/>
<path fill="#FFFFFF" d="M67.623,86.44h81.751H67.623z"/>
<rect x="67.622" y="84.561" fill="#525252" width="81.75" height="3.757"/>
<rect x="174.064" y="85.675" fill="#FFFFFF" width="81.751" height="97.388"/>
<polygon fill="#FFFFFF" points="174.064,183.063 214.939,222.346 255.815,183.063 "/>
<polygon fill="#FFFFFF" points="249.236,77.293 214.939,77.293 212.848,77.293 181.541,77.293 174.064,85.676 212.848,85.676 
	214.939,85.676 256.713,85.676 "/>
<path fill="#FFFFFF" d="M182.876,193.632h64.126H182.876z"/>
<rect x="182.875" y="191.752" fill="#525252" width="64.126" height="3.757"/>
<rect x="180.997" y="189.875" fill="#FFFFFF" width="3.757" height="53.411"/>
<rect x="245.122" y="189.875" fill="#FFFFFF" width="3.757" height="53.411"/>
<rect x="182.875" y="234.678" fill="#FFFFFF" width="64.126" height="3.758"/>
<path fill="#FFFFFF" d="M174.064,86.44h81.751H174.064z"/>
<rect x="174.063" y="84.561" fill="#525252" width="81.75" height="3.757"/>
<rect x="149.372" y="166.435" fill="#FFFFFF" width="24.692" height="16.629"/>
<path fill="#525252" d="M175.941,184.942h-28.447v-20.386h28.447V184.942z M151.251,181.186h20.934v-12.872h-20.934V181.186z"/>
<polyline fill="#FFFFFF" points="99.868,105.661 99.868,96.268 118.652,96.268 118.652,105.661 "/>
<polygon fill="#525252" points="120.529,105.661 116.772,105.661 116.772,98.146 101.745,98.146 101.745,105.661 97.988,105.661 
	97.988,94.391 120.529,94.391 "/>
<polyline fill="#FFFFFF" points="205.548,105.661 205.548,96.268 224.331,96.268 224.331,105.661 "/>
<polygon fill="#525252" points="226.21,105.661 222.453,105.661 222.453,98.146 207.427,98.146 207.427,105.661 203.669,105.661 
	203.669,94.391 226.21,94.391 "/>
<g>
	<defs>
		<rect id="SVGID_3_" width="320.579" height="320.579"/>
	</defs>
	<clipPath id="SVGID_4_">
		<use xlink:href="#SVGID_3_"  overflow="visible"/>
	</clipPath>
	<path clip-path="url(#SVGID_4_)" fill="#FFFFFF" d="M119.553,143.222c0,6.106-4.95,11.056-11.056,11.056
		s-11.056-4.95-11.056-11.056c0-6.106,4.95-11.056,11.056-11.056S119.553,137.116,119.553,143.222"/>
	<path clip-path="url(#SVGID_4_)" fill="#525252" d="M108.499,156.157c-7.132,0-12.936-5.802-12.936-12.934
		s5.804-12.936,12.936-12.936s12.932,5.804,12.932,12.936S115.631,156.157,108.499,156.157 M108.499,134.044
		c-5.063,0-9.179,4.118-9.179,9.179s4.116,9.178,9.179,9.178c5.059,0,9.175-4.117,9.175-9.178S113.558,134.044,108.499,134.044"/>
	<path clip-path="url(#SVGID_4_)" fill="#FFFFFF" d="M225.995,143.222c0,6.106-4.949,11.056-11.056,11.056
		c-6.105,0-11.056-4.95-11.056-11.056c0-6.106,4.95-11.056,11.056-11.056C221.046,132.166,225.995,137.116,225.995,143.222"/>
	<path clip-path="url(#SVGID_4_)" fill="#525252" d="M214.94,156.157c-7.133,0-12.937-5.802-12.937-12.934
		s5.804-12.936,12.937-12.936c7.132,0,12.932,5.804,12.932,12.936S222.072,156.157,214.94,156.157 M214.94,134.044
		c-5.063,0-9.18,4.118-9.18,9.179s4.116,9.178,9.18,9.178c5.059,0,9.176-4.117,9.176-9.178S219.999,134.044,214.94,134.044"/>
	<rect x="107.219" y="168.594" clip-path="url(#SVGID_4_)" fill="#525252" width="5.382" height="12.092"/>
	<polyline clip-path="url(#SVGID_4_)" fill="#FFFFFF" points="117.118,166.469 103.969,166.469 99.461,161.338 85.749,161.338 	"/>
	<polygon clip-path="url(#SVGID_4_)" fill="#525252" points="117.117,168.348 103.117,168.348 98.608,163.217 85.749,163.217 
		85.749,159.461 100.311,159.461 104.819,164.591 117.117,164.591 	"/>
	<rect x="213.33" y="168.594" clip-path="url(#SVGID_4_)" fill="#525252" width="5.382" height="12.092"/>
	<polyline clip-path="url(#SVGID_4_)" fill="#FFFFFF" points="223.228,166.469 210.079,166.469 205.571,161.338 191.859,161.338 	
		"/>
	<polygon clip-path="url(#SVGID_4_)" fill="#525252" points="223.228,168.348 209.228,168.348 204.719,163.217 191.859,163.217 
		191.859,159.461 206.422,159.461 210.93,164.591 223.228,164.591 	"/>
</g>
</svg>
