<?xml version="1.0" encoding="utf-8"?>
<!-- Generator: Adobe Illustrator 16.0.0, SVG Export Plug-In . SVG Version: 6.00 Build 0)  -->
<!DOCTYPE svg PUBLIC "-//W3C//DTD SVG 1.1//EN" "http://www.w3.org/Graphics/SVG/1.1/DTD/svg11.dtd">
<svg version="1.1" id="Layer_1" xmlns="http://www.w3.org/2000/svg" xmlns:xlink="http://www.w3.org/1999/xlink" x="0px" y="0px"
	 width="320.579px" height="320.579px" viewBox="0 0 320.579 320.579" enable-background="new 0 0 320.579 320.579"
	 xml:space="preserve">
<g>
	<defs>
		<rect id="SVGID_1_" width="320.579" height="320.579"/>
	</defs>
	<clipPath id="SVGID_2_">
		<use xlink:href="#SVGID_1_"  overflow="visible"/>
	</clipPath>
	<path clip-path="url(#SVGID_2_)" fill="#525252" d="M160.289,320.579L160.289,320.579C71.764,320.579,0,248.815,0,160.29v-0.001
		C0,71.764,71.764,0,160.289,0s160.289,71.764,160.289,160.289v0.001C320.578,248.815,248.814,320.579,160.289,320.579"/>
</g>
<g>
	<defs>
		<rect id="SVGID_3_" width="320.579" height="320.579"/>
	</defs>
	<clipPath id="SVGID_4_">
		<use xlink:href="#SVGID_3_"  overflow="visible"/>
	</clipPath>
	<path clip-path="url(#SVGID_4_)" fill="#FFFFFF" d="M218.853,229.807H101.726c-1.657,0-3,1.343-3,3v15.784h123.126v-15.784
		C221.853,231.149,220.51,229.807,218.853,229.807"/>
	<path clip-path="url(#SVGID_4_)" fill="#FFFFFF" d="M214.339,79.519H106.24c-6.224,0-11.27,5.046-11.27,11.27l3.757,126.542
		c0,6.89,5.585,12.476,12.475,12.476h98.175c6.89,0,12.476-5.586,12.476-12.476l3.756-126.542
		C225.608,84.565,220.563,79.519,214.339,79.519"/>
	<path clip-path="url(#SVGID_4_)" fill="#525252" d="M204.621,200.167h-88.664c-0.414,0-0.75,0.336-0.75,0.75v28.89h90.164v-28.89
		C205.371,200.503,205.035,200.167,204.621,200.167"/>
	<path clip-path="url(#SVGID_4_)" fill="#FFFFFF" d="M137.745,215.374h-5.073c-0.508,0-0.92-0.412-0.92-0.92v-17.849h6.913v17.849
		C138.666,214.962,138.253,215.374,137.745,215.374"/>
	<path clip-path="url(#SVGID_4_)" fill="#FFFFFF" d="M162.801,215.374h-5.073c-0.508,0-0.92-0.412-0.92-0.92v-17.849h6.913v17.849
		C163.721,214.962,163.309,215.374,162.801,215.374"/>
	<path clip-path="url(#SVGID_4_)" fill="#FFFFFF" d="M187.545,215.374h-5.073c-0.508,0-0.92-0.412-0.92-0.92v-17.849h6.913v17.849
		C188.465,214.962,188.053,215.374,187.545,215.374"/>
	<rect x="128.443" y="174.847" clip-path="url(#SVGID_4_)" fill="#525252" width="13.532" height="17.846"/>
	<rect x="153.524" y="174.847" clip-path="url(#SVGID_4_)" fill="#525252" width="13.532" height="17.846"/>
	<rect x="178.243" y="174.847" clip-path="url(#SVGID_4_)" fill="#525252" width="13.532" height="17.846"/>
	<path clip-path="url(#SVGID_4_)" fill="#FFFFFF" d="M116.146,94.546h74.692c0.518,0,0.937,0.42,0.937,0.937v67.626
		c0,0.518-0.419,0.938-0.937,0.938h-74.692c-0.518,0-0.937-0.42-0.937-0.938V95.483C115.208,94.966,115.627,94.546,116.146,94.546"
		/>
	<path clip-path="url(#SVGID_4_)" fill="#525252" d="M188.252,165.925H118.73c-2.977,0-5.4-2.423-5.4-5.4V98.068
		c0-2.978,2.423-5.401,5.4-5.401h69.522c2.978,0,5.401,2.423,5.401,5.401v62.456C193.653,163.502,191.229,165.925,188.252,165.925
		 M118.73,96.424c-0.906,0-1.644,0.737-1.644,1.644v62.456c0,0.906,0.738,1.645,1.644,1.645h69.522c0.907,0,1.644-0.738,1.644-1.645
		V98.068c0-0.907-0.736-1.644-1.644-1.644H118.73z"/>
	<rect x="132.113" y="73.258" clip-path="url(#SVGID_4_)" fill="#FFFFFF" width="56.352" height="6.261"/>
	<rect x="200.675" y="94.546" clip-path="url(#SVGID_4_)" fill="#525252" width="5.635" height="69.501"/>
	<rect x="197.622" y="140.097" clip-path="url(#SVGID_4_)" fill="#FFFFFF" width="11.975" height="8.453"/>
</g>
</svg>
