<?xml version="1.0" encoding="utf-8"?>
<!-- Generator: Adobe Illustrator 16.0.0, SVG Export Plug-In . SVG Version: 6.00 Build 0)  -->
<!DOCTYPE svg PUBLIC "-//W3C//DTD SVG 1.1//EN" "http://www.w3.org/Graphics/SVG/1.1/DTD/svg11.dtd">
<svg version="1.1" id="Layer_1" xmlns="http://www.w3.org/2000/svg" xmlns:xlink="http://www.w3.org/1999/xlink" x="0px" y="0px"
	 width="320.579px" height="320.579px" viewBox="0 0 320.579 320.579" enable-background="new 0 0 320.579 320.579"
	 xml:space="preserve">
<g>
	<defs>
		<rect id="SVGID_1_" width="320.579" height="320.579"/>
	</defs>
	<clipPath id="SVGID_2_">
		<use xlink:href="#SVGID_1_"  overflow="visible"/>
	</clipPath>
	<path clip-path="url(#SVGID_2_)" fill="#525252" d="M160.289,320.579L160.289,320.579C71.764,320.579,0,248.815,0,160.29v-0.001
		C0,71.764,71.764,0,160.289,0s160.289,71.764,160.289,160.289v0.001C320.578,248.815,248.814,320.579,160.289,320.579"/>
</g>
<g>
	<defs>
		<rect id="SVGID_3_" width="320.579" height="320.579"/>
	</defs>
	<clipPath id="SVGID_4_">
		<use xlink:href="#SVGID_3_"  overflow="visible"/>
	</clipPath>
	<path clip-path="url(#SVGID_4_)" fill="#FFFFFF" d="M201.953,193.934l-6.772-8.214c10.224-8.437,27.478-23.39,30.234-27.608
		c2.498-4.143,3.037-29.072,2.175-51.714h-17.753v-10.65h27.926l0.246,5.068c0.605,12.558,2.135,54.228-3.679,63.124
		C229.879,170.744,206.579,190.12,201.953,193.934"/>
	<polygon clip-path="url(#SVGID_4_)" fill="#FFFFFF" points="125.537,193.725 115.143,92.738 163.369,72.662 211.594,92.738 
		201.201,193.725 	"/>
	<path clip-path="url(#SVGID_4_)" fill="#525252" d="M163.368,74.696l46.212,19.238l-10.076,97.911h-33.496h-5.279h-33.496
		l-10.076-97.911L163.368,74.696z M163.368,70.627l-50.234,20.913l10.709,104.062h36.886h5.279h36.886l10.709-104.062
		L163.368,70.627z"/>
	<polygon clip-path="url(#SVGID_4_)" fill="#FFFFFF" points="201.121,194.058 165.552,194.058 160.517,194.058 124.948,194.058 
		114.734,240.267 140.143,247.781 160.517,247.781 165.552,247.781 185.926,247.781 211.335,240.267 	"/>
	<path clip-path="url(#SVGID_4_)" fill="#525252" d="M186.199,249.658l-46.589-0.077l-27.087-8.011l10.918-49.39h79.186
		l10.918,49.39L186.199,249.658z M140.414,245.901h45.243l23.465-6.938l-9.509-43.025h-73.155l-9.509,43.025L140.414,245.901z"/>
	<polygon clip-path="url(#SVGID_4_)" fill="#FFFFFF" points="120.648,94.123 97.552,94.123 121.408,136.762 	"/>
	<polygon clip-path="url(#SVGID_4_)" fill="#FFFFFF" points="164.587,59.361 162.15,59.361 152.241,59.361 156.897,78.674 
		162.15,78.674 164.587,78.674 169.84,78.674 174.496,59.361 	"/>
	<line clip-path="url(#SVGID_4_)" fill="#FFFFFF" x1="114.966" y1="92.245" x2="213.603" y2="91.541"/>
	<polygon clip-path="url(#SVGID_4_)" fill="#525252" points="114.982,94.122 114.953,90.365 213.59,89.661 213.62,93.418 	"/>
	<line clip-path="url(#SVGID_4_)" fill="#FFFFFF" x1="123.128" y1="179.693" x2="202.98" y2="178.989"/>
	<polygon clip-path="url(#SVGID_4_)" fill="#525252" points="123.145,181.572 123.108,177.815 202.962,177.111 202.999,180.868 	"/>
	<line clip-path="url(#SVGID_4_)" fill="#FFFFFF" x1="140.143" y1="247.78" x2="148.485" y2="193.687"/>
	
		<rect x="142.435" y="193.367" transform="matrix(0.9883 0.1523 -0.1523 0.9883 35.3039 -19.4052)" clip-path="url(#SVGID_4_)" fill="#525252" width="3.757" height="54.733"/>
	<line clip-path="url(#SVGID_4_)" fill="#FFFFFF" x1="185.926" y1="247.78" x2="177.821" y2="194.058"/>
	
		<rect x="154.709" y="219.041" transform="matrix(0.1492 0.9888 -0.9888 0.1492 373.1748 8.1107)" clip-path="url(#SVGID_4_)" fill="#525252" width="54.329" height="3.756"/>
</g>
</svg>
