<?xml version="1.0" encoding="utf-8"?>
<!-- Generator: Adobe Illustrator 16.0.0, SVG Export Plug-In . SVG Version: 6.00 Build 0)  -->
<!DOCTYPE svg PUBLIC "-//W3C//DTD SVG 1.1//EN" "http://www.w3.org/Graphics/SVG/1.1/DTD/svg11.dtd">
<svg version="1.1" id="Layer_1" xmlns="http://www.w3.org/2000/svg" xmlns:xlink="http://www.w3.org/1999/xlink" x="0px" y="0px"
	 width="320.579px" height="320.579px" viewBox="0 0 320.579 320.579" enable-background="new 0 0 320.579 320.579"
	 xml:space="preserve">
<g>
	<defs>
		<rect id="SVGID_1_" width="320.579" height="320.579"/>
	</defs>
	<clipPath id="SVGID_2_">
		<use xlink:href="#SVGID_1_"  overflow="visible"/>
	</clipPath>
	<path clip-path="url(#SVGID_2_)" fill="#525252" d="M160.289,320.579L160.289,320.579C71.764,320.579,0,248.815,0,160.29v-0.001
		C0,71.764,71.764,0,160.289,0s160.289,71.764,160.289,160.289v0.001C320.578,248.815,248.814,320.579,160.289,320.579"/>
</g>
<g>
	<defs>
		<rect id="SVGID_3_" width="320.579" height="320.579"/>
	</defs>
	<clipPath id="SVGID_4_">
		<use xlink:href="#SVGID_3_"  overflow="visible"/>
	</clipPath>
	<path clip-path="url(#SVGID_4_)" fill="#FFFFFF" d="M245.1,241.629H75.479c-0.98,0-1.774-0.794-1.774-1.773v-83.427
		c0-0.979,0.794-1.774,1.774-1.774H245.1c0.98,0,1.774,0.795,1.774,1.774v83.427C246.874,240.835,246.08,241.629,245.1,241.629"/>
	<path clip-path="url(#SVGID_4_)" fill="#525252" d="M131.583,228.556H86.461c-0.333,0-0.604,0.271-0.604,0.604v14.724
		c0,0.334,0.271,0.604,0.604,0.604h45.122c0.334,0,0.604-0.27,0.604-0.604v-14.724C132.187,228.826,131.917,228.556,131.583,228.556
		"/>
	<path clip-path="url(#SVGID_4_)" fill="#FFFFFF" d="M129.917,247.308H88.128c-2.808,0-5.092-2.282-5.092-5.092v-11.389
		c0-2.809,2.284-5.093,5.092-5.093h41.789c2.809,0,5.092,2.284,5.092,5.093v11.389C135.009,245.025,132.726,247.308,129.917,247.308
		 M88.679,241.666h40.688v-10.289H88.679V241.666z"/>
	<path clip-path="url(#SVGID_4_)" fill="#525252" d="M183.04,228.556h-45.121c-0.334,0-0.605,0.271-0.605,0.604v14.724
		c0,0.334,0.271,0.604,0.605,0.604h45.121c0.334,0,0.604-0.27,0.604-0.604v-14.724C183.644,228.826,183.374,228.556,183.04,228.556"
		/>
	<path clip-path="url(#SVGID_4_)" fill="#FFFFFF" d="M181.375,247.308h-41.791c-2.808,0-5.092-2.282-5.092-5.092v-11.389
		c0-2.809,2.284-5.093,5.092-5.093h41.791c2.806,0,5.09,2.284,5.09,5.093v11.389C186.465,245.025,184.181,247.308,181.375,247.308
		 M140.135,241.666h40.688v-10.289h-40.688V241.666z"/>
	<path clip-path="url(#SVGID_4_)" fill="#525252" d="M234.497,228.556h-45.122c-0.333,0-0.604,0.271-0.604,0.604v14.724
		c0,0.334,0.271,0.604,0.604,0.604h45.122c0.334,0,0.604-0.27,0.604-0.604v-14.724C235.101,228.826,234.831,228.556,234.497,228.556
		"/>
	<path clip-path="url(#SVGID_4_)" fill="#FFFFFF" d="M232.831,247.308h-41.789c-2.809,0-5.092-2.282-5.092-5.092v-11.389
		c0-2.809,2.283-5.093,5.092-5.093h41.789c2.808,0,5.092,2.284,5.092,5.093v11.389C237.923,245.025,235.639,247.308,232.831,247.308
		 M191.592,241.666h40.688v-10.289h-40.688V241.666z"/>
	<path clip-path="url(#SVGID_4_)" fill="#FFFFFF" d="M132.034,166.41H86.01l-4.074-78.46h54.172L132.034,166.41z M91.37,160.767
		h35.304l3.491-67.174H87.879L91.37,160.767z"/>
	<path clip-path="url(#SVGID_4_)" fill="#FFFFFF" d="M129.642,79.542H88.403c-0.599,0-1.084,0.485-1.084,1.083v9.556h43.406v-9.556
		C130.725,80.026,130.24,79.542,129.642,79.542"/>
	<path clip-path="url(#SVGID_4_)" fill="#FFFFFF" d="M183.491,166.41h-46.024l-4.074-78.46h54.172L183.491,166.41z M142.827,160.767
		h35.305l3.49-67.174h-42.286L142.827,160.767z"/>
	<path clip-path="url(#SVGID_4_)" fill="#FFFFFF" d="M181.099,79.542H139.86c-0.599,0-1.084,0.485-1.084,1.083v9.556h43.406v-9.556
		C182.182,80.026,181.697,79.542,181.099,79.542"/>
	<path clip-path="url(#SVGID_4_)" fill="#FFFFFF" d="M234.947,166.41h-46.022l-4.076-78.46h54.174L234.947,166.41z M194.285,160.767
		h35.302l3.491-67.174h-42.286L194.285,160.767z"/>
	<path clip-path="url(#SVGID_4_)" fill="#FFFFFF" d="M232.556,79.542h-41.239c-0.599,0-1.084,0.485-1.084,1.083v9.556h43.406v-9.556
		C233.639,80.026,233.154,79.542,232.556,79.542"/>
	<rect x="195.375" y="160.29" clip-path="url(#SVGID_4_)" fill="#525252" width="34.393" height="12.267"/>
	<rect x="208.057" y="172.556" clip-path="url(#SVGID_4_)" fill="#525252" width="9.028" height="18.258"/>
	<rect x="143.283" y="160.29" clip-path="url(#SVGID_4_)" fill="#525252" width="34.393" height="12.267"/>
	<rect x="155.965" y="172.556" clip-path="url(#SVGID_4_)" fill="#525252" width="9.028" height="18.258"/>
	<rect x="91.826" y="160.29" clip-path="url(#SVGID_4_)" fill="#525252" width="34.393" height="12.267"/>
	<rect x="104.508" y="172.556" clip-path="url(#SVGID_4_)" fill="#525252" width="9.028" height="18.258"/>
	<path clip-path="url(#SVGID_4_)" fill="#525252" d="M131.591,120.536c0,0-15.224-1.109-18.772,2.186
		c-5.023,4.665-0.695,9.391-25.763,9.391"/>
	<path clip-path="url(#SVGID_4_)" fill="#FFFFFF" d="M87.055,133.991v-3.757c18.388,0,19.951-2.504,21.759-5.404
		c0.662-1.06,1.413-2.265,2.726-3.483c3.95-3.665,17.511-2.882,20.185-2.684l-0.271,3.746c-5.991-0.435-15.326-0.193-17.357,1.689
		c-0.946,0.881-1.506,1.774-2.096,2.722C109.216,131.282,106.149,133.991,87.055,133.991"/>
	<path clip-path="url(#SVGID_4_)" fill="#525252" d="M182.747,120.536c0,0-15.225-1.109-18.772,2.186
		c-5.023,4.665-0.695,9.391-25.763,9.391"/>
	<path clip-path="url(#SVGID_4_)" fill="#FFFFFF" d="M138.212,133.991v-3.757c18.386,0,19.949-2.504,21.757-5.402
		c0.664-1.062,1.415-2.267,2.728-3.485c3.951-3.667,17.513-2.877,20.185-2.684l-0.271,3.746c-5.987-0.435-15.326-0.193-17.357,1.689
		c-0.948,0.881-1.506,1.776-2.096,2.722C160.373,131.282,157.304,133.991,138.212,133.991"/>
	<path clip-path="url(#SVGID_4_)" fill="#525252" d="M234.839,120.536c0,0-15.224-1.109-18.772,2.186
		c-5.022,4.665-0.694,9.391-25.763,9.391"/>
	<path clip-path="url(#SVGID_4_)" fill="#FFFFFF" d="M190.305,133.991v-3.757c18.386,0,19.949-2.504,21.757-5.402
		c0.663-1.062,1.413-2.265,2.726-3.485c3.948-3.665,17.512-2.882,20.188-2.684l-0.271,3.746c-5.988-0.435-15.327-0.196-17.358,1.691
		c-0.946,0.879-1.506,1.772-2.097,2.72C212.466,131.282,209.398,133.991,190.305,133.991"/>
	<path clip-path="url(#SVGID_4_)" fill="#525252" d="M233.546,231.686H87.032c-4.709,0-8.541-3.832-8.541-8.543v-56.188
		c0-4.711,3.832-8.543,8.541-8.543h146.514c4.711,0,8.543,3.832,8.543,8.543v56.188
		C242.089,227.854,238.257,231.686,233.546,231.686 M87.032,162.168c-2.638,0-4.784,2.146-4.784,4.786v56.188
		c0,2.64,2.146,4.785,4.784,4.785h146.514c2.64,0,4.785-2.146,4.785-4.785v-56.188c0-2.64-2.146-4.786-4.785-4.786H87.032z"/>
</g>
</svg>
